<svg xmlns="http://www.w3.org/2000/svg" viewBox="0 0 400 400" fill="none">
  <defs>
    <!-- Background atmosphere -->
    <radialGradient id="cb-bgGlow" cx="0.5" cy="0.4" r="0.6">
      <stop offset="0%" stop-color="#60A5FA" stop-opacity="0.1"/>
      <stop offset="50%" stop-color="#3B82F6" stop-opacity="0.05"/>
      <stop offset="100%" stop-color="#2563EB" stop-opacity="0"/>
    </radialGradient>
    <!-- Face gradient -->
    <radialGradient id="cb-face" cx="0.45" cy="0.38" r="0.55">
      <stop offset="0%" stop-color="#FFFDF7"/>
      <stop offset="60%" stop-color="#FEF3E2"/>
      <stop offset="100%" stop-color="#FDE9C8"/>
    </radialGradient>
    <!-- Body/onesie gradient -->
    <linearGradient id="cb-onesie" x1="0.3" y1="0" x2="0.6" y2="1">
      <stop offset="0%" stop-color="#EFF6FF"/>
      <stop offset="40%" stop-color="#DBEAFE"/>
      <stop offset="100%" stop-color="#BFDBFE"/>
    </linearGradient>
    <!-- Iris gradient - watery blue -->
    <radialGradient id="cb-iris" cx="0.42" cy="0.38" r="0.58">
      <stop offset="0%" stop-color="#93C5FD"/>
      <stop offset="30%" stop-color="#60A5FA"/>
      <stop offset="70%" stop-color="#3B82F6"/>
      <stop offset="100%" stop-color="#1D4ED8"/>
    </radialGradient>
    <!-- Tear gradient -->
    <linearGradient id="cb-tear" x1="0.5" y1="0" x2="0.5" y2="1">
      <stop offset="0%" stop-color="#BFDBFE" stop-opacity="0.7"/>
      <stop offset="50%" stop-color="#93C5FD" stop-opacity="0.5"/>
      <stop offset="100%" stop-color="#60A5FA" stop-opacity="0.3"/>
    </linearGradient>
    <!-- Teardrop gradient -->
    <radialGradient id="cb-teardrop" cx="0.35" cy="0.3" r="0.6">
      <stop offset="0%" stop-color="white" stop-opacity="0.6"/>
      <stop offset="40%" stop-color="#BFDBFE" stop-opacity="0.5"/>
      <stop offset="100%" stop-color="#60A5FA" stop-opacity="0.3"/>
    </radialGradient>
    <!-- Cloud gradient -->
    <radialGradient id="cb-cloud" cx="0.4" cy="0.35" r="0.6">
      <stop offset="0%" stop-color="#E2E8F0"/>
      <stop offset="50%" stop-color="#CBD5E1"/>
      <stop offset="100%" stop-color="#94A3B8"/>
    </radialGradient>
    <!-- Puddle gradient -->
    <radialGradient id="cb-puddle" cx="0.5" cy="0.3" r="0.6">
      <stop offset="0%" stop-color="#93C5FD" stop-opacity="0.35"/>
      <stop offset="60%" stop-color="#60A5FA" stop-opacity="0.2"/>
      <stop offset="100%" stop-color="#3B82F6" stop-opacity="0.05"/>
    </radialGradient>
    <!-- Hair gradient -->
    <linearGradient id="cb-hair" x1="0.5" y1="0" x2="0.5" y2="1">
      <stop offset="0%" stop-color="#FDE68A"/>
      <stop offset="50%" stop-color="#FCD34D"/>
      <stop offset="100%" stop-color="#FBBF24"/>
    </linearGradient>
    <!-- Cheek blush -->
    <radialGradient id="cb-blush" cx="0.5" cy="0.5" r="0.5">
      <stop offset="0%" stop-color="#FCA5A5" stop-opacity="0.35"/>
      <stop offset="100%" stop-color="#FCA5A5" stop-opacity="0"/>
    </radialGradient>
    <!-- Shadow -->
    <filter id="cb-shadow">
      <feDropShadow dx="0" dy="3" stdDeviation="4" flood-color="#1E40AF" flood-opacity="0.1"/>
    </filter>
    <!-- Sparkle glow -->
    <filter id="cb-sparkle">
      <feGaussianBlur stdDeviation="2" result="blur"/>
      <feMerge>
        <feMergeNode in="blur"/>
        <feMergeNode in="SourceGraphic"/>
      </feMerge>
    </filter>
    <!-- Water shimmer -->
    <filter id="cb-waterShimmer">
      <feGaussianBlur stdDeviation="1.5" result="blur"/>
      <feMerge>
        <feMergeNode in="blur"/>
        <feMergeNode in="SourceGraphic"/>
      </feMerge>
    </filter>
    <!-- Onesie star decoration -->
    <radialGradient id="cb-star" cx="0.5" cy="0.5" r="0.5">
      <stop offset="0%" stop-color="#93C5FD" stop-opacity="0.5"/>
      <stop offset="100%" stop-color="#60A5FA" stop-opacity="0.2"/>
    </radialGradient>
  </defs>

  <!-- Background soft blue atmosphere -->
  <circle cx="200" cy="200" r="200" fill="url(#cb-bgGlow)"/>

  <!-- ======= RAINBOW ARC (background) ======= -->
  <g opacity="0.5">
    <!-- Rainbow bands -->
    <path d="M60 320 C60 200, 120 100, 200 100 C280 100, 340 200, 340 320" stroke="#EF4444" stroke-width="4" fill="none" opacity="0.2"/>
    <path d="M68 320 C68 208, 125 112, 200 112 C275 112, 332 208, 332 320" stroke="#F97316" stroke-width="4" fill="none" opacity="0.2"/>
    <path d="M76 320 C76 216, 130 124, 200 124 C270 124, 324 216, 324 320" stroke="#EAB308" stroke-width="4" fill="none" opacity="0.2"/>
    <path d="M84 320 C84 224, 135 136, 200 136 C265 136, 316 224, 316 320" stroke="#22C55E" stroke-width="4" fill="none" opacity="0.18"/>
    <path d="M92 320 C92 232, 140 148, 200 148 C260 148, 308 232, 308 320" stroke="#3B82F6" stroke-width="4" fill="none" opacity="0.16"/>
    <path d="M100 320 C100 240, 145 160, 200 160 C255 160, 300 240, 300 320" stroke="#6366F1" stroke-width="4" fill="none" opacity="0.14"/>
    <path d="M108 320 C108 248, 150 172, 200 172 C250 172, 292 248, 292 320" stroke="#A855F7" stroke-width="3" fill="none" opacity="0.12"/>
  </g>

  <!-- ======= PUDDLE below character ======= -->
  <ellipse cx="200" cy="370" rx="85" ry="18" fill="url(#cb-puddle)"/>
  <!-- Puddle ripple details -->
  <ellipse cx="200" cy="368" rx="60" ry="10" stroke="#93C5FD" stroke-width="0.6" fill="none" opacity="0.25"/>
  <ellipse cx="200" cy="372" rx="75" ry="14" stroke="#60A5FA" stroke-width="0.5" fill="none" opacity="0.15"/>
  <ellipse cx="185" cy="365" rx="20" ry="4" stroke="#BFDBFE" stroke-width="0.5" fill="none" opacity="0.2"/>
  <!-- Puddle shimmer highlights -->
  <path d="M170 366 C175 364, 182 363, 188 365" stroke="white" stroke-width="0.6" fill="none" opacity="0.2"/>
  <path d="M210 370 C216 368, 224 367, 230 369" stroke="white" stroke-width="0.5" fill="none" opacity="0.15"/>

  <!-- ======= CHARACTER BODY (sitting) ======= -->
  <g filter="url(#cb-shadow)">
    <!-- Body / onesie - sitting position -->
    <path d="M148 280 C142 260, 145 240, 152 228 C160 218, 178 210, 200 210 C222 210, 240 218, 248 228 C255 240, 258 260, 252 280 C248 295, 240 310, 230 320 C220 328, 210 335, 200 338 C190 335, 180 328, 170 320 C160 310, 152 295, 148 280Z" fill="url(#cb-onesie)"/>
    <!-- Onesie shading -->
    <path d="M162 270 C158 255, 160 242, 166 232 C172 224, 184 218, 200 218 C216 218, 228 224, 234 232 C240 242, 242 255, 238 270 C235 282, 228 294, 220 302 C212 310, 206 315, 200 316 C194 315, 188 310, 180 302 C172 294, 165 282, 162 270Z" fill="white" opacity="0.12"/>
    <!-- Onesie neckline -->
    <path d="M165 230 C175 224, 190 220, 200 220 C210 220, 225 224, 235 230" stroke="#93C5FD" stroke-width="1.5" fill="none" opacity="0.4"/>
    <!-- Onesie buttons -->
    <circle cx="200" cy="255" r="3.5" fill="url(#cb-star)" stroke="#93C5FD" stroke-width="0.5" stroke-opacity="0.3"/>
    <circle cx="200" cy="275" r="3.5" fill="url(#cb-star)" stroke="#93C5FD" stroke-width="0.5" stroke-opacity="0.3"/>
    <!-- Star decoration on onesie -->
    <path d="M215 248 L216.5 244 L218 248 L222 246.5 L218.5 248.5 L220 252 L217 249.5 L214 252 L215.5 249 L212 247.5Z" fill="#93C5FD" opacity="0.25"/>

    <!-- Left arm - slightly raised, baby gesture -->
    <path d="M152 250 C140 248, 128 255, 120 265 C115 272, 115 280, 120 284 C125 288, 132 285, 136 278 C140 270, 145 262, 150 256" fill="url(#cb-onesie)" stroke="#BFDBFE" stroke-width="0.5" stroke-opacity="0.3"/>
    <!-- Left hand -->
    <path d="M118 268 C114 272, 112 280, 118 286 C124 290, 132 288, 136 282 C138 278, 134 272, 128 270 C124 268, 120 268, 118 268Z" fill="#FEF3E2"/>
    <!-- Tiny fingers -->
    <path d="M116 276 C113 274, 112 278, 114 280" fill="#FEF3E2"/>
    <path d="M114 280 C112 278, 110 282, 113 283" fill="#FEF3E2"/>

    <!-- Right arm -->
    <path d="M248 250 C260 248, 272 255, 280 265 C285 272, 285 280, 280 284 C275 288, 268 285, 264 278 C260 270, 255 262, 250 256" fill="url(#cb-onesie)" stroke="#BFDBFE" stroke-width="0.5" stroke-opacity="0.3"/>
    <!-- Right hand -->
    <path d="M282 268 C286 272, 288 280, 282 286 C276 290, 268 288, 264 282 C262 278, 266 272, 272 270 C276 268, 280 268, 282 268Z" fill="#FEF3E2"/>
    <!-- Tiny fingers -->
    <path d="M284 276 C287 274, 288 278, 286 280" fill="#FEF3E2"/>
    <path d="M286 280 C288 278, 290 282, 287 283" fill="#FEF3E2"/>

    <!-- Legs/feet - sitting, splayed out -->
    <!-- Left leg -->
    <path d="M165 310 C155 318, 140 330, 135 340 C132 348, 135 355, 142 358 C148 360, 158 358, 164 352 C170 346, 172 335, 170 325 C168 318, 166 314, 165 310Z" fill="url(#cb-onesie)" stroke="#BFDBFE" stroke-width="0.4" stroke-opacity="0.3"/>
    <!-- Left foot -->
    <path d="M132 345 C128 348, 125 355, 130 360 C135 364, 148 364, 155 360 C160 356, 158 350, 152 346 C146 343, 136 342, 132 345Z" fill="#DBEAFE"/>
    <!-- Left foot highlight -->
    <path d="M135 350 C140 347, 148 348, 152 352" stroke="white" stroke-width="0.7" fill="none" opacity="0.3"/>

    <!-- Right leg -->
    <path d="M235 310 C245 318, 260 330, 265 340 C268 348, 265 355, 258 358 C252 360, 242 358, 236 352 C230 346, 228 335, 230 325 C232 318, 234 314, 235 310Z" fill="url(#cb-onesie)" stroke="#BFDBFE" stroke-width="0.4" stroke-opacity="0.3"/>
    <!-- Right foot -->
    <path d="M268 345 C272 348, 275 355, 270 360 C265 364, 252 364, 245 360 C240 356, 242 350, 248 346 C254 343, 264 342, 268 345Z" fill="#DBEAFE"/>
    <!-- Right foot highlight -->
    <path d="M265 350 C260 347, 252 348, 248 352" stroke="white" stroke-width="0.7" fill="none" opacity="0.3"/>
  </g>

  <!-- ======= HEAD ======= -->
  <g filter="url(#cb-shadow)">
    <!-- Main head shape - extra large baby head -->
    <path d="M120 170 C120 125, 145 90, 200 90 C255 90, 280 125, 280 170 C280 205, 265 235, 238 244 C225 248, 175 248, 162 244 C135 235, 120 205, 120 170Z" fill="url(#cb-face)"/>
    <!-- Face highlight -->
    <path d="M142 148 C142 128, 162 108, 200 108 C238 108, 258 128, 258 148 C258 162, 248 172, 232 176 C220 179, 180 179, 168 176 C152 172, 142 162, 142 148Z" fill="white" opacity="0.1"/>
  </g>

  <!-- ======= WISPY BABY HAIR ======= -->
  <g>
    <!-- Hair tufts on top -->
    <path d="M185 98 C183 80, 188 65, 195 60 C198 58, 200 62, 198 72 C196 82, 192 92, 190 98" fill="url(#cb-hair)" opacity="0.7"/>
    <path d="M200 94 C200 75, 205 58, 210 52 C213 50, 215 54, 213 65 C211 76, 206 86, 203 94" fill="url(#cb-hair)" opacity="0.65"/>
    <path d="M210 96 C214 80, 220 68, 225 64 C228 62, 228 66, 225 75 C222 84, 216 92, 213 97" fill="url(#cb-hair)" opacity="0.6"/>
    <!-- Side wisps -->
    <path d="M140 140 C132 128, 130 115, 135 108 C138 104, 140 108, 140 118 C140 126, 140 134, 142 140" fill="url(#cb-hair)" opacity="0.45"/>
    <path d="M260 140 C268 128, 270 115, 265 108 C262 104, 260 108, 260 118 C260 126, 260 134, 258 140" fill="url(#cb-hair)" opacity="0.45"/>
    <!-- Curly wisp -->
    <path d="M175 100 C170 88, 172 75, 180 72 C186 70, 184 78, 180 86 C178 92, 177 96, 178 100" fill="url(#cb-hair)" opacity="0.5"/>
  </g>

  <!-- ======= EYES - Large, glistening with tears ======= -->
  <!-- Left eye -->
  <g>
    <!-- Eye white - extra large -->
    <path d="M148 168 C148 152, 160 140, 175 140 C190 140, 200 152, 200 168 C200 184, 190 196, 175 196 C160 196, 148 184, 148 168Z" fill="white"/>
    <!-- Watery overlay -->
    <path d="M148 168 C148 152, 160 140, 175 140 C190 140, 200 152, 200 168 C200 184, 190 196, 175 196 C160 196, 148 184, 148 168Z" fill="#BFDBFE" opacity="0.08"/>
    <!-- Worried eyebrow -->
    <path d="M150 138 C158 130, 172 128, 185 134" stroke="#93C5FD" stroke-width="2.5" fill="none" stroke-linecap="round" opacity="0.6"/>
    <!-- Iris - large watery -->
    <path d="M155 172 C155 160, 163 150, 175 150 C187 150, 195 160, 195 172 C195 184, 187 192, 175 192 C163 192, 155 184, 155 172Z" fill="url(#cb-iris)"/>
    <!-- Pupil -->
    <path d="M167 174 C167 168, 170 162, 175 162 C180 162, 183 168, 183 174 C183 180, 180 185, 175 185 C170 185, 167 180, 167 174Z" fill="#1E3A8A"/>
    <!-- Main highlight - large teary -->
    <path d="M161 160 C161 155, 164 152, 169 152 C174 152, 177 155, 177 160 C177 165, 174 168, 169 168 C164 168, 161 165, 161 160Z" fill="white" opacity="0.9"/>
    <!-- Secondary highlight -->
    <circle cx="185" cy="180" r="3" fill="white" opacity="0.5"/>
    <!-- Tertiary tiny highlight - watery effect -->
    <circle cx="163" cy="185" r="1.5" fill="white" opacity="0.4"/>
    <circle cx="180" cy="155" r="1.2" fill="white" opacity="0.35"/>
    <!-- Watery rim at bottom of eye -->
    <path d="M152 186 C158 192, 168 196, 178 196 C188 196, 196 192, 200 186" stroke="#93C5FD" stroke-width="1.5" fill="none" opacity="0.3"/>
    <!-- Eye water pooling -->
    <path d="M155 188 C162 194, 172 198, 180 197 C188 196, 195 192, 198 188 C196 192, 188 198, 178 199 C168 200, 158 195, 155 188Z" fill="#BFDBFE" opacity="0.25"/>
  </g>

  <!-- Right eye -->
  <g>
    <path d="M200 168 C200 152, 212 140, 227 140 C242 140, 252 152, 252 168 C252 184, 242 196, 227 196 C212 196, 200 184, 200 168Z" fill="white"/>
    <path d="M200 168 C200 152, 212 140, 227 140 C242 140, 252 152, 252 168 C252 184, 242 196, 227 196 C212 196, 200 184, 200 168Z" fill="#BFDBFE" opacity="0.08"/>
    <!-- Worried eyebrow -->
    <path d="M215 134 C228 128, 242 130, 250 138" stroke="#93C5FD" stroke-width="2.5" fill="none" stroke-linecap="round" opacity="0.6"/>
    <!-- Iris -->
    <path d="M205 172 C205 160, 213 150, 225 150 C237 150, 245 160, 245 172 C245 184, 237 192, 225 192 C213 192, 205 184, 205 172Z" fill="url(#cb-iris)"/>
    <!-- Pupil -->
    <path d="M217 174 C217 168, 220 162, 225 162 C230 162, 233 168, 233 174 C233 180, 230 185, 225 185 C220 185, 217 180, 217 174Z" fill="#1E3A8A"/>
    <!-- Main highlight -->
    <path d="M211 160 C211 155, 214 152, 219 152 C224 152, 227 155, 227 160 C227 165, 224 168, 219 168 C214 168, 211 165, 211 160Z" fill="white" opacity="0.9"/>
    <!-- Secondary highlight -->
    <circle cx="235" cy="180" r="3" fill="white" opacity="0.5"/>
    <!-- Tertiary highlights -->
    <circle cx="213" cy="185" r="1.5" fill="white" opacity="0.4"/>
    <circle cx="230" cy="155" r="1.2" fill="white" opacity="0.35"/>
    <!-- Watery rim -->
    <path d="M202 186 C208 192, 218 196, 228 196 C238 196, 246 192, 250 186" stroke="#93C5FD" stroke-width="1.5" fill="none" opacity="0.3"/>
    <!-- Eye water pooling -->
    <path d="M205 188 C212 194, 222 198, 230 197 C238 196, 245 192, 248 188 C246 192, 238 198, 228 199 C218 200, 208 195, 205 188Z" fill="#BFDBFE" opacity="0.25"/>
  </g>

  <!-- ======= TEAR STREAMS ======= -->
  <!-- Left tear stream -->
  <g>
    <!-- Main tear flow -->
    <path d="M165 196 C163 210, 160 228, 158 248 C156 268, 155 290, 156 310 C157 325, 158 340, 160 355" stroke="url(#cb-tear)" stroke-width="6" fill="none" stroke-linecap="round"/>
    <!-- Tear highlight streak -->
    <path d="M163 200 C161 215, 159 235, 157 255 C156 275, 155 295, 156 315" stroke="white" stroke-width="1.2" fill="none" opacity="0.35" stroke-linecap="round"/>
    <!-- Individual tear drops along stream -->
    <path d="M162 220 C160 216, 158 218, 158 222 C158 226, 162 228, 164 224 C165 222, 163 219, 162 220Z" fill="url(#cb-teardrop)" filter="url(#cb-waterShimmer)"/>
    <path d="M159 255 C157 251, 155 253, 155 257 C155 261, 159 263, 161 259 C162 257, 160 254, 159 255Z" fill="url(#cb-teardrop)" filter="url(#cb-waterShimmer)"/>
    <path d="M157 290 C155 286, 153 288, 153 292 C153 296, 157 298, 159 294 C160 292, 158 289, 157 290Z" fill="url(#cb-teardrop)" filter="url(#cb-waterShimmer)"/>
    <!-- Sparkle on tear -->
    <circle cx="161" cy="218" r="1" fill="white" opacity="0.7"/>
    <circle cx="158" cy="252" r="0.8" fill="white" opacity="0.6"/>
    <circle cx="156" cy="288" r="0.8" fill="white" opacity="0.5"/>
  </g>

  <!-- Right tear stream -->
  <g>
    <path d="M235 196 C237 210, 240 228, 242 248 C244 268, 245 290, 244 310 C243 325, 242 340, 240 355" stroke="url(#cb-tear)" stroke-width="6" fill="none" stroke-linecap="round"/>
    <!-- Tear highlight -->
    <path d="M237 200 C239 215, 241 235, 243 255 C244 275, 245 295, 244 315" stroke="white" stroke-width="1.2" fill="none" opacity="0.35" stroke-linecap="round"/>
    <!-- Individual tear drops -->
    <path d="M238 225 C240 221, 242 223, 242 227 C242 231, 238 233, 236 229 C235 227, 237 224, 238 225Z" fill="url(#cb-teardrop)" filter="url(#cb-waterShimmer)"/>
    <path d="M241 260 C243 256, 245 258, 245 262 C245 266, 241 268, 239 264 C238 262, 240 259, 241 260Z" fill="url(#cb-teardrop)" filter="url(#cb-waterShimmer)"/>
    <path d="M243 295 C245 291, 247 293, 247 297 C247 301, 243 303, 241 299 C240 297, 242 294, 243 295Z" fill="url(#cb-teardrop)" filter="url(#cb-waterShimmer)"/>
    <!-- Sparkle on tear -->
    <circle cx="239" cy="223" r="1" fill="white" opacity="0.7"/>
    <circle cx="242" cy="258" r="0.8" fill="white" opacity="0.6"/>
    <circle cx="244" cy="293" r="0.8" fill="white" opacity="0.5"/>
  </g>

  <!-- ======= FALLING TEARDROPS (from cloud) ======= -->
  <g>
    <!-- Teardrop 1 -->
    <path d="M182 78 C182 74, 185 68, 186 68 C187 68, 190 74, 190 78 C190 82, 187 85, 186 85 C185 85, 182 82, 182 78Z" fill="url(#cb-teardrop)" filter="url(#cb-waterShimmer)"/>
    <circle cx="185" cy="74" r="0.8" fill="white" opacity="0.6"/>
    <!-- Teardrop 2 -->
    <path d="M204 85 C204 81, 207 75, 208 75 C209 75, 212 81, 212 85 C212 89, 209 92, 208 92 C207 92, 204 89, 204 85Z" fill="url(#cb-teardrop)" filter="url(#cb-waterShimmer)"/>
    <circle cx="207" cy="81" r="0.7" fill="white" opacity="0.55"/>
    <!-- Teardrop 3 -->
    <path d="M220 72 C220 68, 223 62, 224 62 C225 62, 228 68, 228 72 C228 76, 225 79, 224 79 C223 79, 220 76, 220 72Z" fill="url(#cb-teardrop)" filter="url(#cb-waterShimmer)"/>
    <circle cx="223" cy="68" r="0.7" fill="white" opacity="0.5"/>
  </g>

  <!-- ======= RAIN CLOUD ======= -->
  <g>
    <!-- Cloud shadow -->
    <path d="M155 62 C155 50, 165 40, 178 38 C185 30, 198 25, 212 28 C220 22, 235 22, 245 30 C258 32, 265 42, 262 54 C268 58, 268 66, 262 70 C258 76, 248 78, 240 76 C232 80, 218 82, 208 78 C198 82, 182 82, 172 76 C160 74, 152 68, 155 62Z" fill="#94A3B8" opacity="0.15" transform="translate(2, 3)"/>
    <!-- Main cloud body -->
    <path d="M155 62 C155 50, 165 40, 178 38 C185 30, 198 25, 212 28 C220 22, 235 22, 245 30 C258 32, 265 42, 262 54 C268 58, 268 66, 262 70 C258 76, 248 78, 240 76 C232 80, 218 82, 208 78 C198 82, 182 82, 172 76 C160 74, 152 68, 155 62Z" fill="url(#cb-cloud)"/>
    <!-- Cloud highlight -->
    <path d="M165 52 C168 42, 178 36, 190 35 C198 30, 208 28, 218 30 C228 26, 240 28, 248 34 C245 30, 232 26, 220 28 C210 26, 200 28, 192 33 C180 34, 170 40, 165 52Z" fill="white" opacity="0.3"/>
    <!-- Cloud puff details -->
    <path d="M172 55 C175 48, 185 44, 195 46" stroke="white" stroke-width="0.8" fill="none" opacity="0.2"/>
    <path d="M210 42 C218 38, 232 38, 240 44" stroke="white" stroke-width="0.7" fill="none" opacity="0.18"/>
  </g>

  <!-- Blush -->
  <ellipse cx="152" cy="205" rx="14" ry="8" fill="url(#cb-blush)"/>
  <ellipse cx="248" cy="205" rx="14" ry="8" fill="url(#cb-blush)"/>

  <!-- Button nose -->
  <path d="M197 200 C198 197, 202 197, 203 200 C204 202, 202 205, 200 205 C198 205, 196 202, 197 200Z" fill="#F9A8D4" opacity="0.4"/>

  <!-- Trembling pouty mouth -->
  <path d="M186 218 C188 215, 192 213, 196 214 C198 214.5, 200 215, 202 214.5 C206 213.5, 210 215, 214 218" stroke="#E879A0" stroke-width="1.8" fill="none" stroke-linecap="round" opacity="0.5"/>
  <!-- Pouty bottom lip -->
  <path d="M189 218 C192 224, 198 227, 200 227 C202 227, 208 224, 211 218" stroke="#E879A0" stroke-width="1.5" fill="none" opacity="0.35"/>
  <!-- Lip tremble lines -->
  <path d="M193 222 C195 224, 198 225, 200 225 C202 225, 205 224, 207 222" stroke="#E879A0" stroke-width="0.6" fill="none" opacity="0.2"/>

  <!-- ======= SHIMMER / SPARKLE EFFECTS ======= -->
  <g filter="url(#cb-sparkle)">
    <!-- Sparkles on tears and around character -->
    <path d="M145 230 L147 225 L149 230 L154 228 L149 230 L151 235 L149 230 L144 232Z" fill="#93C5FD" opacity="0.5"/>
    <path d="M255 235 L256.5 231 L258 235 L262 233.5 L258 235 L259.5 239 L258 235 L254 236.5Z" fill="#BFDBFE" opacity="0.45"/>
    <path d="M130 160 L131 157 L132 160 L135 159 L132 160 L133 163 L132 160 L129 161Z" fill="#93C5FD" opacity="0.35"/>
    <path d="M270 155 L271 152 L272 155 L275 154 L272 155 L273 158 L272 155 L269 156Z" fill="#BFDBFE" opacity="0.35"/>
    <path d="M100 280 L101.5 276 L103 280 L107 278.5 L103 280 L104.5 284 L103 280 L99 281.5Z" fill="#60A5FA" opacity="0.3"/>
    <path d="M300 275 L301 272 L302 275 L305 274 L302 275 L303 278 L302 275 L299 276Z" fill="#60A5FA" opacity="0.28"/>
  </g>

  <!-- Soft ambient particles -->
  <circle cx="80" cy="120" r="2" fill="#93C5FD" opacity="0.25" filter="url(#cb-sparkle)"/>
  <circle cx="320" cy="110" r="2.5" fill="#BFDBFE" opacity="0.2" filter="url(#cb-sparkle)"/>
  <circle cx="55" cy="240" r="1.8" fill="#60A5FA" opacity="0.2" filter="url(#cb-sparkle)"/>
  <circle cx="350" cy="230" r="2" fill="#93C5FD" opacity="0.18" filter="url(#cb-sparkle)"/>
  <circle cx="70" cy="340" r="1.5" fill="#BFDBFE" opacity="0.15" filter="url(#cb-sparkle)"/>
  <circle cx="335" cy="330" r="1.8" fill="#60A5FA" opacity="0.15" filter="url(#cb-sparkle)"/>
</svg>