<svg xmlns="http://www.w3.org/2000/svg" viewBox="0 0 400 400" fill="none">
  <defs>
    <!-- Sky/sunset gradient background -->
    <radialGradient id="hp-bgGlow" cx="0.5" cy="0.55" r="0.6">
      <stop offset="0%" stop-color="#FBBF24" stop-opacity="0.15"/>
      <stop offset="50%" stop-color="#F59E0B" stop-opacity="0.08"/>
      <stop offset="100%" stop-color="#D97706" stop-opacity="0"/>
    </radialGradient>
    <!-- Face gradient -->
    <radialGradient id="hp-face" cx="0.45" cy="0.38" r="0.55">
      <stop offset="0%" stop-color="#FFFDF7"/>
      <stop offset="60%" stop-color="#FEF3E2"/>
      <stop offset="100%" stop-color="#FDE9C8"/>
    </radialGradient>
    <!-- Body warm outfit -->
    <linearGradient id="hp-outfit" x1="0.3" y1="0" x2="0.7" y2="1">
      <stop offset="0%" stop-color="#FCD34D"/>
      <stop offset="40%" stop-color="#F59E0B"/>
      <stop offset="100%" stop-color="#D97706"/>
    </linearGradient>
    <!-- Hat gradient -->
    <linearGradient id="hp-hat" x1="0.3" y1="0" x2="0.6" y2="1">
      <stop offset="0%" stop-color="#92400E"/>
      <stop offset="30%" stop-color="#78350F"/>
      <stop offset="100%" stop-color="#451A03"/>
    </linearGradient>
    <!-- Hat band -->
    <linearGradient id="hp-hatBand" x1="0" y1="0" x2="1" y2="0">
      <stop offset="0%" stop-color="#DC2626"/>
      <stop offset="50%" stop-color="#EF4444"/>
      <stop offset="100%" stop-color="#DC2626"/>
    </linearGradient>
    <!-- Scarf gradient -->
    <linearGradient id="hp-scarf" x1="0.2" y1="0" x2="0.8" y2="1">
      <stop offset="0%" stop-color="#EF4444"/>
      <stop offset="50%" stop-color="#DC2626"/>
      <stop offset="100%" stop-color="#B91C1C"/>
    </linearGradient>
    <!-- Backpack gradient -->
    <linearGradient id="hp-pack" x1="0.3" y1="0" x2="0.7" y2="1">
      <stop offset="0%" stop-color="#A16207"/>
      <stop offset="50%" stop-color="#854D0E"/>
      <stop offset="100%" stop-color="#713F12"/>
    </linearGradient>
    <!-- Iris gradient -->
    <radialGradient id="hp-iris" cx="0.45" cy="0.4" r="0.55">
      <stop offset="0%" stop-color="#FBBF24"/>
      <stop offset="40%" stop-color="#B45309"/>
      <stop offset="100%" stop-color="#78350F"/>
    </radialGradient>
    <!-- Mountain gradient -->
    <linearGradient id="hp-mountain" x1="0.5" y1="0" x2="0.5" y2="1">
      <stop offset="0%" stop-color="#92400E" stop-opacity="0.25"/>
      <stop offset="100%" stop-color="#78350F" stop-opacity="0.08"/>
    </linearGradient>
    <!-- Sunburst gradient -->
    <radialGradient id="hp-sunburst" cx="0.5" cy="0.6" r="0.45">
      <stop offset="0%" stop-color="#FDE68A" stop-opacity="0.25"/>
      <stop offset="40%" stop-color="#FBBF24" stop-opacity="0.12"/>
      <stop offset="100%" stop-color="#F59E0B" stop-opacity="0"/>
    </radialGradient>
    <!-- Rock gradient -->
    <linearGradient id="hp-rock" x1="0.3" y1="0" x2="0.7" y2="1">
      <stop offset="0%" stop-color="#A8A29E"/>
      <stop offset="40%" stop-color="#78716C"/>
      <stop offset="100%" stop-color="#57534E"/>
    </linearGradient>
    <!-- Rock highlight -->
    <linearGradient id="hp-rockHi" x1="0.5" y1="0" x2="0.5" y2="1">
      <stop offset="0%" stop-color="#D6D3D1" stop-opacity="0.4"/>
      <stop offset="100%" stop-color="#A8A29E" stop-opacity="0"/>
    </linearGradient>
    <!-- Flag gradient -->
    <linearGradient id="hp-flag" x1="0" y1="0.3" x2="1" y2="0.7">
      <stop offset="0%" stop-color="#EF4444"/>
      <stop offset="50%" stop-color="#F97316"/>
      <stop offset="100%" stop-color="#EAB308"/>
    </linearGradient>
    <!-- Shadow filter -->
    <filter id="hp-shadow">
      <feDropShadow dx="0" dy="3" stdDeviation="4" flood-color="#78350F" flood-opacity="0.15"/>
    </filter>
    <!-- Glow filter -->
    <filter id="hp-glow">
      <feGaussianBlur stdDeviation="3" result="blur"/>
      <feMerge>
        <feMergeNode in="blur"/>
        <feMergeNode in="SourceGraphic"/>
      </feMerge>
    </filter>
    <!-- Cheek blush -->
    <radialGradient id="hp-blush" cx="0.5" cy="0.5" r="0.5">
      <stop offset="0%" stop-color="#FBBF24" stop-opacity="0.3"/>
      <stop offset="100%" stop-color="#F59E0B" stop-opacity="0"/>
    </radialGradient>
    <!-- Boot gradient -->
    <linearGradient id="hp-boot" x1="0.5" y1="0" x2="0.5" y2="1">
      <stop offset="0%" stop-color="#92400E"/>
      <stop offset="100%" stop-color="#713F12"/>
    </linearGradient>
  </defs>

  <!-- Background warm glow -->
  <circle cx="200" cy="220" r="200" fill="url(#hp-bgGlow)"/>

  <!-- Sunburst rays -->
  <g opacity="0.12">
    <path d="M200 200 L160 40 L180 40Z" fill="#FBBF24"/>
    <path d="M200 200 L210 35 L230 40Z" fill="#FBBF24"/>
    <path d="M200 200 L260 50 L275 65Z" fill="#FCD34D"/>
    <path d="M200 200 L310 90 L318 110Z" fill="#FBBF24"/>
    <path d="M200 200 L340 150 L345 175Z" fill="#FCD34D"/>
    <path d="M200 200 L360 220 L355 245Z" fill="#FBBF24"/>
    <path d="M200 200 L130 50 L145 42Z" fill="#FCD34D"/>
    <path d="M200 200 L80 85 L90 70Z" fill="#FBBF24"/>
    <path d="M200 200 L50 140 L45 160Z" fill="#FCD34D"/>
    <path d="M200 200 L35 210 L38 235Z" fill="#FBBF24"/>
  </g>

  <!-- Sunrise glow behind character -->
  <ellipse cx="200" cy="260" rx="160" ry="80" fill="url(#hp-sunburst)"/>

  <!-- Mountain silhouettes - far background -->
  <path d="M0 380 L30 310 C40 295, 55 290, 70 295 L95 310 C105 295, 120 275, 140 280 L170 310 C180 300, 190 310, 200 315 L230 300 C245 285, 260 270, 280 280 L310 305 C320 295, 340 290, 355 300 L380 320 C390 310, 400 315, 400 380Z" fill="url(#hp-mountain)"/>
  <!-- Nearer mountain range -->
  <path d="M0 380 L50 335 C65 322, 80 325, 95 335 L130 350 C145 340, 160 330, 180 340 L200 350 C215 338, 235 328, 255 340 L280 355 C295 345, 315 340, 335 350 L370 360 C385 355, 395 358, 400 365 L400 380Z" fill="#78350F" opacity="0.1"/>

  <!-- Small birds in distance -->
  <g opacity="0.2" stroke="#78350F" stroke-width="1.2" fill="none" stroke-linecap="round">
    <path d="M60 120 C63 115, 66 115, 69 118 C72 115, 75 115, 78 120"/>
    <path d="M310 90 C312 87, 314 87, 316 89 C318 87, 320 87, 322 90"/>
    <path d="M340 130 C342 127, 344 127, 346 129 C348 127, 350 127, 352 130"/>
    <path d="M85 95 C87 92, 89 92, 91 94 C93 92, 95 92, 97 95"/>
  </g>

  <!-- ======= ROCK FORMATION ======= -->
  <g>
    <!-- Main rock -->
    <path d="M120 365 C115 360, 108 340, 112 325 C115 315, 125 305, 140 300 C155 296, 185 293, 215 293 C245 293, 270 296, 285 300 C300 305, 308 315, 310 325 C314 340, 308 360, 303 365 C290 372, 240 378, 200 378 C160 378, 135 372, 120 365Z" fill="url(#hp-rock)"/>
    <!-- Rock highlight -->
    <path d="M135 315 C142 308, 165 300, 200 298 C235 300, 258 308, 265 315 C268 320, 265 325, 255 328 C240 330, 220 328, 200 327 C180 328, 160 330, 145 328 C135 325, 132 320, 135 315Z" fill="url(#hp-rockHi)"/>
    <!-- Rock cracks/details -->
    <path d="M155 340 C160 335, 170 332, 175 338" stroke="#57534E" stroke-width="0.8" fill="none" opacity="0.3"/>
    <path d="M230 345 C235 340, 242 338, 248 342" stroke="#57534E" stroke-width="0.7" fill="none" opacity="0.25"/>
    <path d="M190 360 C195 355, 205 354, 210 358" stroke="#57534E" stroke-width="0.7" fill="none" opacity="0.2"/>
    <!-- Small rocks beside -->
    <path d="M95 372 C92 365, 95 358, 102 356 C108 354, 115 358, 118 365 C120 370, 115 375, 108 376 C100 377, 96 375, 95 372Z" fill="#78716C"/>
    <path d="M305 370 C302 363, 306 356, 314 354 C320 353, 326 357, 328 364 C330 369, 326 374, 318 375 C311 376, 306 374, 305 370Z" fill="#78716C"/>
  </g>

  <!-- ======= BACKPACK (behind body) ======= -->
  <path d="M235 230 C245 225, 258 228, 262 238 C268 255, 265 280, 260 295 C258 300, 250 305, 242 303 C235 300, 232 290, 232 275 C232 258, 233 240, 235 230Z" fill="url(#hp-pack)"/>
  <!-- Backpack flap -->
  <path d="M236 235 C242 228, 256 228, 260 235 C262 240, 258 248, 250 250 C242 252, 236 248, 234 242Z" fill="#A16207"/>
  <!-- Backpack buckle -->
  <path d="M245 248 C244 245, 248 243, 252 244 C256 245, 257 249, 254 251 C251 253, 246 251, 245 248Z" fill="#FDE68A" opacity="0.7"/>
  <!-- Backpack strap visible -->
  <path d="M238 238 C235 235, 228 235, 225 240" stroke="#854D0E" stroke-width="3" fill="none" stroke-linecap="round"/>

  <!-- ======= CHARACTER BODY ======= -->
  <g filter="url(#hp-shadow)">
    <!-- Body / adventure outfit -->
    <path d="M158 230 C152 248, 150 270, 154 290 C157 305, 168 315, 180 318 C190 320, 210 320, 220 318 C232 315, 243 305, 246 290 C250 270, 248 248, 242 230 C235 222, 218 216, 200 216 C182 216, 165 222, 158 230Z" fill="url(#hp-outfit)"/>
    <!-- Outfit shading -->
    <path d="M172 238 C168 252, 166 272, 170 290 C172 302, 180 310, 192 314 C198 315, 205 315, 210 314 C222 310, 230 302, 232 290 C236 272, 234 252, 230 238 C225 232, 212 226, 200 226 C188 226, 175 232, 172 238Z" fill="white" opacity="0.1"/>
    <!-- Belt -->
    <path d="M155 272 C160 268, 180 265, 200 265 C220 265, 240 268, 245 272 C240 276, 220 278, 200 278 C180 278, 160 276, 155 272Z" fill="#92400E"/>
    <!-- Belt buckle -->
    <path d="M193 268 C192 266, 195 264, 200 264 C205 264, 208 266, 207 268 C208 271, 205 273, 200 273 C195 273, 192 271, 193 268Z" fill="#FDE68A" stroke="#D97706" stroke-width="0.5"/>
    <!-- Pocket detail -->
    <path d="M165 280 C167 277, 175 276, 180 278 C182 280, 181 288, 178 290 C175 292, 167 292, 165 289 C163 286, 164 282, 165 280Z" stroke="#D97706" stroke-width="1" fill="none" opacity="0.4"/>

    <!-- Left arm - raised triumphantly -->
    <path d="M158 240 C148 235, 135 220, 125 195 C122 188, 118 180, 115 172 C113 167, 115 162, 120 160 C125 158, 130 162, 132 167 C135 175, 138 185, 142 195 C148 210, 150 225, 155 235" fill="#FDE9C8"/>
    <!-- Left arm outfit sleeve -->
    <path d="M158 240 C150 237, 142 228, 138 218 C140 215, 145 215, 148 218 C152 225, 155 232, 158 238" fill="url(#hp-outfit)"/>
    <!-- Left hand -->
    <path d="M115 172 C112 165, 114 158, 120 156 C126 154, 132 158, 134 165 C135 168, 133 172, 130 173 C126 175, 118 175, 115 172Z" fill="#FEF3E2"/>

    <!-- Flag pole in raised hand -->
    <path d="M122 162 L118 58" stroke="#78350F" stroke-width="2.5" stroke-linecap="round"/>
    <!-- Flag -->
    <path d="M118 58 C122 55, 130 52, 140 55 C148 58, 155 52, 158 48 C158 55, 155 62, 148 65 C140 68, 130 72, 118 75Z" fill="url(#hp-flag)"/>
    <!-- Flag highlight -->
    <path d="M120 60 C125 58, 132 56, 138 58 C144 60, 148 57, 150 54" stroke="white" stroke-width="0.6" fill="none" opacity="0.3"/>
    <!-- Flag star -->
    <path d="M136 60 L137.5 56 L139 60 L143 58.5 L139.5 60.5 L141 64 L138 61.5 L135 64 L136 60.5 L132.5 59Z" fill="white" opacity="0.6"/>

    <!-- Right arm - at side confidently -->
    <path d="M242 240 C250 245, 258 258, 262 270 C264 276, 262 282, 258 284 C254 286, 248 282, 248 276 C247 268, 246 260, 244 250" fill="#FDE9C8"/>
    <!-- Right arm sleeve -->
    <path d="M242 240 C248 243, 254 250, 258 258 C255 258, 250 256, 248 252 C245 248, 244 244, 242 240" fill="url(#hp-outfit)"/>
    <!-- Right hand - fist -->
    <path d="M255 276 C258 272, 264 272, 266 276 C268 280, 264 286, 258 288 C252 288, 248 284, 250 278Z" fill="#FEF3E2"/>
  </g>

  <!-- Boots -->
  <path d="M170 312 C165 316, 158 325, 160 332 C162 338, 170 342, 180 340 C188 338, 192 332, 190 326 C188 320, 182 314, 176 312" fill="url(#hp-boot)"/>
  <path d="M225 312 C230 316, 237 325, 235 332 C233 338, 225 342, 215 340 C207 338, 203 332, 205 326 C207 320, 213 314, 219 312" fill="url(#hp-boot)"/>
  <!-- Boot soles -->
  <path d="M160 334 C163 338, 172 342, 182 340 C188 338, 190 334, 188 330" stroke="#451A03" stroke-width="1.5" fill="none" opacity="0.3"/>
  <path d="M235 334 C232 338, 223 342, 213 340 C207 338, 205 334, 207 330" stroke="#451A03" stroke-width="1.5" fill="none" opacity="0.3"/>

  <!-- ======= SCARF ======= -->
  <path d="M162 228 C170 222, 185 218, 200 218 C215 218, 230 222, 238 228 C242 232, 240 238, 235 240 C225 244, 210 242, 200 242 C190 242, 175 244, 165 240 C160 238, 158 232, 162 228Z" fill="url(#hp-scarf)"/>
  <!-- Scarf tail flowing in wind -->
  <path d="M238 232 C248 230, 260 225, 272 228 C282 231, 288 238, 280 242 C272 246, 260 240, 252 238 C245 236, 240 236, 238 234Z" fill="url(#hp-scarf)" opacity="0.9"/>
  <!-- Scarf folds -->
  <path d="M170 230 C180 227, 195 226, 200 226" stroke="#991B1B" stroke-width="0.8" fill="none" opacity="0.3"/>
  <path d="M200 226 C205 226, 220 227, 230 230" stroke="#991B1B" stroke-width="0.8" fill="none" opacity="0.3"/>
  <path d="M248 230 C258 228, 268 228, 275 232" stroke="#991B1B" stroke-width="0.7" fill="none" opacity="0.25"/>
  <!-- Scarf end detail -->
  <path d="M275 235 C280 232, 285 235, 282 240 C279 244, 274 243, 274 238Z" fill="#DC2626" opacity="0.7"/>
  <path d="M272 238 C276 236, 280 238, 278 242 C276 245, 272 244, 272 240Z" fill="#DC2626" opacity="0.5"/>

  <!-- ======= HEAD ======= -->
  <g filter="url(#hp-shadow)">
    <!-- Main head shape -->
    <path d="M135 175 C135 135, 155 108, 200 108 C245 108, 265 135, 265 175 C265 205, 252 228, 228 236 C218 239, 182 239, 172 236 C148 228, 135 205, 135 175Z" fill="url(#hp-face)"/>
    <!-- Face highlight -->
    <path d="M152 155 C152 138, 168 122, 200 122 C232 122, 248 138, 248 155 C248 168, 240 178, 226 182 C216 185, 184 185, 174 182 C160 178, 152 168, 152 155Z" fill="white" opacity="0.1"/>
  </g>

  <!-- ======= EYES ======= -->
  <!-- Left eye - confident determined look -->
  <g>
    <!-- Eye shape -->
    <path d="M166 172 C166 160, 175 152, 185 152 C195 152, 201 160, 201 172 C201 184, 195 190, 185 190 C175 190, 166 184, 166 172Z" fill="white"/>
    <!-- Eyebrow - determined angle -->
    <path d="M163 148 C170 142, 182 140, 195 144" stroke="#78350F" stroke-width="2.8" fill="none" stroke-linecap="round"/>
    <!-- Iris -->
    <path d="M172 174 C172 166, 177 160, 185 160 C193 160, 197 166, 197 174 C197 182, 193 187, 185 187 C177 187, 172 182, 172 174Z" fill="url(#hp-iris)"/>
    <!-- Pupil -->
    <path d="M180 175 C180 171, 182 168, 185 168 C188 168, 190 171, 190 175 C190 179, 188 182, 185 182 C182 182, 180 179, 180 175Z" fill="#451A03"/>
    <!-- Main highlight -->
    <path d="M177 166 C177 163, 179 161, 182 161 C185 161, 187 163, 187 166 C187 169, 185 171, 182 171 C179 171, 177 169, 177 166Z" fill="white" opacity="0.9"/>
    <!-- Secondary highlight -->
    <circle cx="190" cy="179" r="2" fill="white" opacity="0.5"/>
    <!-- Confident sparkle -->
    <path d="M192 163 L193 160 L194 163 L197 162 L194 163 L195 166 L194 163 L191 164Z" fill="white" opacity="0.6"/>
  </g>

  <!-- Right eye -->
  <g>
    <path d="M205 172 C205 160, 214 152, 224 152 C234 152, 240 160, 240 172 C240 184, 234 190, 224 190 C214 190, 205 184, 205 172Z" fill="white"/>
    <!-- Eyebrow -->
    <path d="M211 144 C224 140, 236 142, 243 148" stroke="#78350F" stroke-width="2.8" fill="none" stroke-linecap="round"/>
    <!-- Iris -->
    <path d="M209 174 C209 166, 214 160, 222 160 C230 160, 235 166, 235 174 C235 182, 230 187, 222 187 C214 187, 209 182, 209 174Z" fill="url(#hp-iris)"/>
    <!-- Pupil -->
    <path d="M217 175 C217 171, 219 168, 222 168 C225 168, 227 171, 227 175 C227 179, 225 182, 222 182 C219 182, 217 179, 217 175Z" fill="#451A03"/>
    <!-- Main highlight -->
    <path d="M214 166 C214 163, 216 161, 219 161 C222 161, 224 163, 224 166 C224 169, 222 171, 219 171 C216 171, 214 169, 214 166Z" fill="white" opacity="0.9"/>
    <!-- Secondary highlight -->
    <circle cx="227" cy="179" r="2" fill="white" opacity="0.5"/>
    <!-- Sparkle -->
    <path d="M229 163 L230 160 L231 163 L234 162 L231 163 L232 166 L231 163 L228 164Z" fill="white" opacity="0.6"/>
  </g>

  <!-- Blush -->
  <ellipse cx="165" cy="195" rx="12" ry="6" fill="url(#hp-blush)"/>
  <ellipse cx="241" cy="195" rx="12" ry="6" fill="url(#hp-blush)"/>

  <!-- Nose - small pointed -->
  <path d="M197 194 C199 190, 201 190, 203 194 C204 196, 201 199, 200 199 C199 199, 196 196, 197 194Z" fill="#D97706" opacity="0.35"/>

  <!-- Determined smile - slightly asymmetric -->
  <path d="M186 208 C190 215, 198 218, 204 218 C210 218, 215 214, 218 210" stroke="#78350F" stroke-width="1.8" fill="none" stroke-linecap="round" opacity="0.45"/>
  <!-- Confident smirk corner -->
  <path d="M218 210 C220 208, 221 207, 222 208" stroke="#78350F" stroke-width="1.2" fill="none" stroke-linecap="round" opacity="0.3"/>

  <!-- ======= EXPLORER HAT ======= -->
  <!-- Hat brim -->
  <path d="M128 125 C125 128, 124 135, 128 140 C135 148, 165 155, 200 155 C235 155, 265 148, 272 140 C276 135, 275 128, 272 125 C260 118, 235 112, 200 112 C165 112, 140 118, 128 125Z" fill="url(#hp-hat)"/>
  <!-- Hat brim edge highlight -->
  <path d="M135 130 C150 122, 175 116, 200 116 C225 116, 250 122, 265 130" stroke="#A16207" stroke-width="0.8" fill="none" opacity="0.3"/>
  <!-- Hat dome -->
  <path d="M152 128 C152 105, 168 82, 200 82 C232 82, 248 105, 248 128 C248 132, 240 138, 200 138 C160 138, 152 132, 152 128Z" fill="url(#hp-hat)"/>
  <!-- Hat dome highlight -->
  <path d="M168 105 C172 92, 185 85, 200 85 C215 85, 228 92, 232 105 C228 100, 215 95, 200 95 C185 95, 172 100, 168 105Z" fill="#A16207" opacity="0.3"/>
  <!-- Hat band -->
  <path d="M152 125 C155 120, 175 115, 200 115 C225 115, 245 120, 248 125 C245 130, 225 135, 200 135 C175 135, 155 130, 152 125Z" fill="url(#hp-hatBand)"/>
  <!-- Hat band texture -->
  <path d="M165 122 L165 128" stroke="#991B1B" stroke-width="0.5" opacity="0.3"/>
  <path d="M180 120 L180 130" stroke="#991B1B" stroke-width="0.5" opacity="0.3"/>
  <path d="M195 119 L195 131" stroke="#991B1B" stroke-width="0.5" opacity="0.3"/>
  <path d="M210 119 L210 131" stroke="#991B1B" stroke-width="0.5" opacity="0.3"/>
  <path d="M225 120 L225 130" stroke="#991B1B" stroke-width="0.5" opacity="0.3"/>
  <path d="M240 122 L240 128" stroke="#991B1B" stroke-width="0.5" opacity="0.3"/>
  <!-- Hat top dent -->
  <path d="M180 88 C190 83, 210 83, 220 88" stroke="#451A03" stroke-width="1" fill="none" opacity="0.2"/>

  <!-- ======= SPARKLE / ENERGY EFFECTS ======= -->
  <g filter="url(#hp-glow)">
    <!-- Star sparkles around flag -->
    <path d="M100 80 L102 74 L104 80 L110 78 L104 80 L106 86 L104 80 L98 82Z" fill="#FDE68A" opacity="0.7"/>
    <path d="M140 42 L141.5 38 L143 42 L147 40.5 L143 42 L144.5 46 L143 42 L139 43.5Z" fill="#FBBF24" opacity="0.6"/>
    <path d="M88 55 L89 52 L90 55 L93 54 L90 55 L91 58 L90 55 L87 56Z" fill="#FCD34D" opacity="0.5"/>
  </g>

  <!-- Warm light particles -->
  <circle cx="75" cy="140" r="2.5" fill="#FDE68A" opacity="0.35" filter="url(#hp-glow)"/>
  <circle cx="330" cy="160" r="2" fill="#FCD34D" opacity="0.3" filter="url(#hp-glow)"/>
  <circle cx="55" cy="200" r="1.8" fill="#FBBF24" opacity="0.25" filter="url(#hp-glow)"/>
  <circle cx="350" cy="250" r="2" fill="#FDE68A" opacity="0.28" filter="url(#hp-glow)"/>
  <circle cx="155" cy="60" r="2" fill="#FCD34D" opacity="0.3" filter="url(#hp-glow)"/>
  <circle cx="260" cy="50" r="1.5" fill="#FBBF24" opacity="0.25" filter="url(#hp-glow)"/>
</svg>