<svg xmlns="http://www.w3.org/2000/svg" viewBox="0 0 400 400" fill="none">
  <defs>
    <!-- Body gradient -->
    <linearGradient id="pk-body" x1="0.5" y1="0" x2="0.5" y2="1">
      <stop offset="0%" stop-color="#6EE7B7"/>
      <stop offset="40%" stop-color="#34D399"/>
      <stop offset="100%" stop-color="#059669"/>
    </linearGradient>
    <!-- Face gradient -->
    <radialGradient id="pk-face" cx="0.5" cy="0.4" r="0.55">
      <stop offset="0%" stop-color="#FFFDF7"/>
      <stop offset="70%" stop-color="#FEF3E2"/>
      <stop offset="100%" stop-color="#FDE9C8"/>
    </radialGradient>
    <!-- Horn iridescent gradient -->
    <linearGradient id="pk-horn" x1="0.3" y1="0" x2="0.7" y2="1">
      <stop offset="0%" stop-color="#FDE68A"/>
      <stop offset="25%" stop-color="#FBBF24"/>
      <stop offset="50%" stop-color="#F0ABFC"/>
      <stop offset="75%" stop-color="#A78BFA"/>
      <stop offset="100%" stop-color="#67E8F9"/>
    </linearGradient>
    <!-- Horn shimmer -->
    <linearGradient id="pk-horn-shine" x1="0" y1="0" x2="1" y2="0">
      <stop offset="0%" stop-color="white" stop-opacity="0"/>
      <stop offset="40%" stop-color="white" stop-opacity="0.6"/>
      <stop offset="60%" stop-color="white" stop-opacity="0.6"/>
      <stop offset="100%" stop-color="white" stop-opacity="0"/>
    </linearGradient>
    <!-- Left wing aurora gradient -->
    <linearGradient id="pk-wingL" x1="0" y1="0.2" x2="0.8" y2="0.8">
      <stop offset="0%" stop-color="#A7F3D0" stop-opacity="0.85"/>
      <stop offset="30%" stop-color="#6EE7B7" stop-opacity="0.6"/>
      <stop offset="60%" stop-color="#67E8F9" stop-opacity="0.4"/>
      <stop offset="100%" stop-color="#C4B5FD" stop-opacity="0.2"/>
    </linearGradient>
    <!-- Right wing aurora gradient -->
    <linearGradient id="pk-wingR" x1="1" y1="0.2" x2="0.2" y2="0.8">
      <stop offset="0%" stop-color="#A7F3D0" stop-opacity="0.85"/>
      <stop offset="30%" stop-color="#6EE7B7" stop-opacity="0.6"/>
      <stop offset="60%" stop-color="#67E8F9" stop-opacity="0.4"/>
      <stop offset="100%" stop-color="#C4B5FD" stop-opacity="0.2"/>
    </linearGradient>
    <!-- Wing inner glow -->
    <radialGradient id="pk-wingGlow" cx="0.5" cy="0.5" r="0.5">
      <stop offset="0%" stop-color="#A7F3D0" stop-opacity="0.3"/>
      <stop offset="100%" stop-color="#34D399" stop-opacity="0"/>
    </radialGradient>
    <!-- Background magical glow -->
    <radialGradient id="pk-bgGlow" cx="0.5" cy="0.45" r="0.55">
      <stop offset="0%" stop-color="#10B981" stop-opacity="0.12"/>
      <stop offset="50%" stop-color="#059669" stop-opacity="0.06"/>
      <stop offset="100%" stop-color="#047857" stop-opacity="0"/>
    </radialGradient>
    <!-- Iris gradient -->
    <radialGradient id="pk-iris" cx="0.45" cy="0.4" r="0.55">
      <stop offset="0%" stop-color="#34D399"/>
      <stop offset="40%" stop-color="#059669"/>
      <stop offset="100%" stop-color="#065F46"/>
    </radialGradient>
    <!-- Onesie gradient -->
    <linearGradient id="pk-onesie" x1="0.5" y1="0" x2="0.5" y2="1">
      <stop offset="0%" stop-color="#F0FDF4"/>
      <stop offset="50%" stop-color="#D1FAE5"/>
      <stop offset="100%" stop-color="#A7F3D0"/>
    </linearGradient>
    <!-- Flower gradients -->
    <radialGradient id="pk-flowerPink" cx="0.4" cy="0.3" r="0.6">
      <stop offset="0%" stop-color="#FBCFE8"/>
      <stop offset="100%" stop-color="#EC4899"/>
    </radialGradient>
    <radialGradient id="pk-flowerPurple" cx="0.4" cy="0.3" r="0.6">
      <stop offset="0%" stop-color="#DDD6FE"/>
      <stop offset="100%" stop-color="#8B5CF6"/>
    </radialGradient>
    <!-- Sparkle filter -->
    <filter id="pk-sparkle">
      <feGaussianBlur stdDeviation="2.5" result="blur"/>
      <feMerge>
        <feMergeNode in="blur"/>
        <feMergeNode in="SourceGraphic"/>
      </feMerge>
    </filter>
    <!-- Soft glow filter -->
    <filter id="pk-softGlow">
      <feGaussianBlur stdDeviation="6" result="blur"/>
      <feMerge>
        <feMergeNode in="blur"/>
        <feMergeNode in="SourceGraphic"/>
      </feMerge>
    </filter>
    <!-- Shadow filter -->
    <filter id="pk-shadow">
      <feDropShadow dx="0" dy="3" stdDeviation="5" flood-color="#065F46" flood-opacity="0.15"/>
    </filter>
    <!-- Ear gradient -->
    <linearGradient id="pk-ear" x1="0.5" y1="0" x2="0.5" y2="1">
      <stop offset="0%" stop-color="#FEF3E2"/>
      <stop offset="100%" stop-color="#FCDCB0"/>
    </linearGradient>
    <!-- Ear inner -->
    <linearGradient id="pk-earInner" x1="0.5" y1="0" x2="0.5" y2="1">
      <stop offset="0%" stop-color="#F9A8D4" stop-opacity="0.4"/>
      <stop offset="100%" stop-color="#F472B6" stop-opacity="0.2"/>
    </linearGradient>
    <!-- Cheek blush -->
    <radialGradient id="pk-blush" cx="0.5" cy="0.5" r="0.5">
      <stop offset="0%" stop-color="#F9A8D4" stop-opacity="0.35"/>
      <stop offset="100%" stop-color="#F9A8D4" stop-opacity="0"/>
    </radialGradient>
  </defs>

  <!-- Background magical glow -->
  <circle cx="200" cy="200" r="200" fill="url(#pk-bgGlow)"/>

  <!-- Firefly light dots - background layer -->
  <circle cx="62" cy="85" r="3.5" fill="#A7F3D0" opacity="0.5" filter="url(#pk-sparkle)"/>
  <circle cx="338" cy="72" r="3" fill="#6EE7B7" opacity="0.45" filter="url(#pk-sparkle)"/>
  <circle cx="48" cy="260" r="2.5" fill="#34D399" opacity="0.35" filter="url(#pk-sparkle)"/>
  <circle cx="352" cy="240" r="3" fill="#A7F3D0" opacity="0.4" filter="url(#pk-sparkle)"/>
  <circle cx="85" cy="355" r="2.5" fill="#6EE7B7" opacity="0.3" filter="url(#pk-sparkle)"/>
  <circle cx="315" cy="345" r="2" fill="#34D399" opacity="0.28" filter="url(#pk-sparkle)"/>
  <circle cx="145" cy="55" r="2" fill="#A7F3D0" opacity="0.4" filter="url(#pk-sparkle)"/>
  <circle cx="275" cy="48" r="2.5" fill="#6EE7B7" opacity="0.35" filter="url(#pk-sparkle)"/>
  <circle cx="30" cy="170" r="2" fill="#34D399" opacity="0.3" filter="url(#pk-sparkle)"/>
  <circle cx="375" cy="155" r="2.5" fill="#A7F3D0" opacity="0.35" filter="url(#pk-sparkle)"/>

  <!-- Floating petals -->
  <g opacity="0.45">
    <path d="M72 130 C68 122, 74 115, 80 118 C86 115, 92 122, 88 130 C84 136, 76 136, 72 130Z" fill="#F9A8D4" opacity="0.5" transform="rotate(-15 80 128)"/>
    <path d="M325 300 C321 292, 327 285, 333 288 C339 285, 345 292, 341 300 C337 306, 329 306, 325 300Z" fill="#C4B5FD" opacity="0.4" transform="rotate(20 333 296)"/>
    <path d="M50 310 C47 304, 52 299, 56 301 C60 299, 65 304, 62 310 C59 314, 53 314, 50 310Z" fill="#F9A8D4" opacity="0.35" transform="rotate(10 56 308)"/>
    <path d="M345 100 C342 94, 347 89, 351 91 C355 89, 360 94, 357 100 C354 104, 348 104, 345 100Z" fill="#A7F3D0" opacity="0.4" transform="rotate(-25 351 98)"/>
  </g>

  <!-- Flowers - left ground cluster -->
  <g transform="translate(55, 345)">
    <!-- Stem with leaves -->
    <path d="M2 25 C0 15, -2 5, 1 -8 C3 -14, 2 -18, 0 -20" stroke="#059669" stroke-width="2" fill="none" stroke-linecap="round"/>
    <path d="M0 8 C-6 4, -10 -2, -7 -6" stroke="#059669" stroke-width="1.2" fill="none"/>
    <path d="M0 8 C-8 5, -12 0, -8 -5" fill="#34D399" opacity="0.5"/>
    <!-- Petals using paths -->
    <path d="M0 -20 C-5 -28, -12 -28, -12 -22 C-12 -16, -5 -15, 0 -20Z" fill="url(#pk-flowerPink)" opacity="0.8"/>
    <path d="M0 -20 C5 -28, 12 -28, 12 -22 C12 -16, 5 -15, 0 -20Z" fill="url(#pk-flowerPink)" opacity="0.7"/>
    <path d="M0 -20 C-3 -30, -8 -32, -6 -24 C-4 -20, -1 -19, 0 -20Z" fill="#FBCFE8" opacity="0.6"/>
    <path d="M0 -20 C3 -30, 8 -32, 6 -24 C4 -20, 1 -19, 0 -20Z" fill="#FBCFE8" opacity="0.5"/>
    <circle cx="0" cy="-21" r="3" fill="#FBBF24" opacity="0.7"/>
  </g>
  <g transform="translate(80, 355)">
    <path d="M0 18 C-1 10, 1 2, 0 -6" stroke="#059669" stroke-width="1.8" fill="none" stroke-linecap="round"/>
    <path d="M0 -6 C-4 -14, -10 -14, -10 -9 C-10 -4, -4 -3, 0 -6Z" fill="url(#pk-flowerPurple)" opacity="0.7"/>
    <path d="M0 -6 C4 -14, 10 -14, 10 -9 C10 -4, 4 -3, 0 -6Z" fill="url(#pk-flowerPurple)" opacity="0.6"/>
    <path d="M0 -6 C0 -16, -6 -18, -4 -10 C-2 -6, 0 -5, 0 -6Z" fill="#DDD6FE" opacity="0.5"/>
    <circle cx="0" cy="-7" r="2.5" fill="#FBBF24" opacity="0.6"/>
  </g>

  <!-- Flowers - right ground cluster -->
  <g transform="translate(340, 350)">
    <path d="M0 20 C2 12, 0 4, -1 -5" stroke="#059669" stroke-width="2" fill="none" stroke-linecap="round"/>
    <path d="M-1 -5 C-5 -13, -11 -13, -11 -8 C-11 -3, -5 -2, -1 -5Z" fill="url(#pk-flowerPink)" opacity="0.7"/>
    <path d="M-1 -5 C3 -13, 9 -13, 9 -8 C9 -3, 3 -2, -1 -5Z" fill="url(#pk-flowerPink)" opacity="0.6"/>
    <circle cx="-1" cy="-6" r="2.8" fill="#FBBF24" opacity="0.65"/>
  </g>
  <g transform="translate(360, 358)">
    <path d="M0 14 C1 8, 0 2, -1 -4" stroke="#059669" stroke-width="1.5" fill="none" stroke-linecap="round"/>
    <path d="M-1 -4 C-4 -10, -9 -10, -8 -6 C-7 -2, -3 -1, -1 -4Z" fill="url(#pk-flowerPurple)" opacity="0.6"/>
    <path d="M-1 -4 C2 -10, 7 -10, 6 -6 C5 -2, 1 -1, -1 -4Z" fill="url(#pk-flowerPurple)" opacity="0.5"/>
    <circle cx="-1" cy="-5" r="2.2" fill="#FBBF24" opacity="0.6"/>
  </g>

  <!-- ======= WINGS ======= -->
  <!-- Left wing - upper lobe -->
  <path d="M135 190 C120 160, 85 130, 55 135 C30 140, 25 165, 40 185 C52 200, 85 215, 130 210 C132 208, 134 200, 135 190Z" fill="url(#pk-wingL)" stroke="#A7F3D0" stroke-width="0.8" stroke-opacity="0.6"/>
  <!-- Left wing - lower lobe -->
  <path d="M135 210 C115 205, 80 210, 60 225 C45 238, 50 258, 65 260 C80 262, 110 248, 135 230Z" fill="url(#pk-wingL)" opacity="0.7" stroke="#A7F3D0" stroke-width="0.6" stroke-opacity="0.4"/>
  <!-- Left wing inner shimmer -->
  <path d="M130 195 C112 170, 82 148, 62 152 C45 156, 42 175, 52 190 C62 202, 90 212, 128 208Z" fill="#6EE7B7" opacity="0.12"/>
  <!-- Left wing veins -->
  <path d="M130 195 C105 175, 75 162, 55 168" stroke="#A7F3D0" stroke-width="0.7" fill="none" opacity="0.5"/>
  <path d="M128 205 C105 192, 78 185, 58 190" stroke="#A7F3D0" stroke-width="0.6" fill="none" opacity="0.4"/>
  <path d="M132 215 C112 210, 85 215, 68 228" stroke="#A7F3D0" stroke-width="0.5" fill="none" opacity="0.35"/>
  <path d="M130 225 C115 222, 95 230, 75 242" stroke="#A7F3D0" stroke-width="0.5" fill="none" opacity="0.3"/>

  <!-- Right wing - upper lobe -->
  <path d="M265 190 C280 160, 315 130, 345 135 C370 140, 375 165, 360 185 C348 200, 315 215, 270 210 C268 208, 266 200, 265 190Z" fill="url(#pk-wingR)" stroke="#A7F3D0" stroke-width="0.8" stroke-opacity="0.6"/>
  <!-- Right wing - lower lobe -->
  <path d="M265 210 C285 205, 320 210, 340 225 C355 238, 350 258, 335 260 C320 262, 290 248, 265 230Z" fill="url(#pk-wingR)" opacity="0.7" stroke="#A7F3D0" stroke-width="0.6" stroke-opacity="0.4"/>
  <!-- Right wing inner shimmer -->
  <path d="M270 195 C288 170, 318 148, 338 152 C355 156, 358 175, 348 190 C338 202, 310 212, 272 208Z" fill="#6EE7B7" opacity="0.12"/>
  <!-- Right wing veins -->
  <path d="M270 195 C295 175, 325 162, 345 168" stroke="#A7F3D0" stroke-width="0.7" fill="none" opacity="0.5"/>
  <path d="M272 205 C295 192, 322 185, 342 190" stroke="#A7F3D0" stroke-width="0.6" fill="none" opacity="0.4"/>
  <path d="M268 215 C288 210, 315 215, 332 228" stroke="#A7F3D0" stroke-width="0.5" fill="none" opacity="0.35"/>
  <path d="M270 225 C285 222, 305 230, 325 242" stroke="#A7F3D0" stroke-width="0.5" fill="none" opacity="0.3"/>

  <!-- ======= CHARACTER BODY ======= -->
  <g filter="url(#pk-shadow)">
    <!-- Body / onesie -->
    <path d="M155 235 C150 250, 148 275, 152 300 C155 318, 165 335, 180 340 C190 343, 210 343, 220 340 C235 335, 245 318, 248 300 C252 275, 250 250, 245 235 C235 225, 215 220, 200 220 C185 220, 165 225, 155 235Z" fill="url(#pk-onesie)"/>
    <!-- Onesie body shading -->
    <path d="M170 240 C168 255, 166 280, 170 305 C173 320, 180 332, 195 336 C200 337, 205 337, 210 336 C225 332, 232 320, 235 305 C239 280, 237 255, 235 240 C228 233, 212 228, 200 228 C188 228, 172 233, 170 240Z" fill="white" opacity="0.15"/>
    <!-- Onesie neckline -->
    <path d="M168 238 C175 244, 190 248, 200 248 C210 248, 225 244, 232 238" stroke="#A7F3D0" stroke-width="1.5" fill="none" opacity="0.5"/>
    <!-- Onesie center button detail -->
    <circle cx="200" cy="270" r="3" fill="#34D399" opacity="0.3"/>
    <circle cx="200" cy="290" r="3" fill="#34D399" opacity="0.25"/>

    <!-- Arms -->
    <path d="M155 250 C142 258, 128 272, 122 288 C120 294, 122 300, 128 302 C134 304, 138 298, 140 292 C144 280, 148 270, 155 260" fill="url(#pk-onesie)" stroke="#A7F3D0" stroke-width="0.8" stroke-opacity="0.3"/>
    <path d="M245 250 C258 258, 272 272, 278 288 C280 294, 278 300, 272 302 C266 304, 262 298, 260 292 C256 280, 252 270, 245 260" fill="url(#pk-onesie)" stroke="#A7F3D0" stroke-width="0.8" stroke-opacity="0.3"/>
    <!-- Hands -->
    <path d="M122 292 C118 296, 120 304, 128 306 C136 308, 140 300, 136 294" fill="#FEF3E2"/>
    <path d="M278 292 C282 296, 280 304, 272 306 C264 308, 260 300, 264 294" fill="#FEF3E2"/>

    <!-- Legs/feet -->
    <path d="M175 332 C170 338, 165 348, 168 354 C170 358, 178 360, 188 358 C196 356, 198 350, 195 344 C192 338, 185 334, 180 332" fill="#A7F3D0"/>
    <path d="M225 332 C230 338, 235 348, 232 354 C230 358, 222 360, 212 358 C204 356, 202 350, 205 344 C208 338, 215 334, 220 332" fill="#A7F3D0"/>
    <!-- Foot highlights -->
    <path d="M172 350 C174 346, 180 344, 186 346" stroke="white" stroke-width="0.8" fill="none" opacity="0.3"/>
    <path d="M228 350 C226 346, 220 344, 214 346" stroke="white" stroke-width="0.8" fill="none" opacity="0.3"/>
  </g>

  <!-- ======= HEAD ======= -->
  <g filter="url(#pk-shadow)">
    <!-- Main head shape - rounded with slight chin -->
    <path d="M128 175 C128 132, 148 100, 200 100 C252 100, 272 132, 272 175 C272 205, 260 235, 230 245 C218 249, 182 249, 170 245 C140 235, 128 205, 128 175Z" fill="url(#pk-face)"/>
    <!-- Face highlight -->
    <path d="M148 155 C148 135, 165 115, 200 115 C235 115, 252 135, 252 155 C252 170, 245 180, 230 185 C218 188, 182 188, 170 185 C155 180, 148 170, 148 155Z" fill="white" opacity="0.12"/>
  </g>

  <!-- Elf ears - left -->
  <path d="M132 170 C122 158, 115 140, 118 125 C120 115, 128 112, 135 118 C140 122, 136 140, 134 158 C133 163, 132 167, 132 170Z" fill="url(#pk-ear)"/>
  <path d="M133 165 C126 155, 122 140, 124 130 C126 122, 130 120, 134 124 C137 128, 135 145, 134 158Z" fill="url(#pk-earInner)"/>

  <!-- Elf ears - right -->
  <path d="M268 170 C278 158, 285 140, 282 125 C280 115, 272 112, 265 118 C260 122, 264 140, 266 158 C267 163, 268 167, 268 170Z" fill="url(#pk-ear)"/>
  <path d="M267 165 C274 155, 278 140, 276 130 C274 122, 270 120, 266 124 C263 128, 265 145, 266 158Z" fill="url(#pk-earInner)"/>

  <!-- ======= HORN ======= -->
  <path d="M192 108 C190 95, 193 75, 200 55 C207 75, 210 95, 208 108" fill="url(#pk-horn)"/>
  <!-- Horn highlight/shimmer -->
  <path d="M196 100 C195 90, 197 78, 200 62 C203 78, 205 90, 204 100" fill="url(#pk-horn-shine)"/>
  <!-- Horn spiral detail -->
  <path d="M196 98 C198 95, 202 93, 204 96" stroke="white" stroke-width="0.6" fill="none" opacity="0.4"/>
  <path d="M195 88 C198 85, 203 83, 205 86" stroke="white" stroke-width="0.5" fill="none" opacity="0.35"/>
  <path d="M197 78 C199 76, 202 75, 203 77" stroke="white" stroke-width="0.4" fill="none" opacity="0.3"/>
  <!-- Horn tip glow -->
  <circle cx="200" cy="55" r="4" fill="#FDE68A" opacity="0.6" filter="url(#pk-sparkle)"/>
  <circle cx="200" cy="55" r="2" fill="white" opacity="0.5"/>

  <!-- ======= EYES ======= -->
  <!-- Left eye -->
  <g>
    <!-- Eye white -->
    <path d="M163 172 C163 160, 172 152, 182 152 C192 152, 198 160, 198 172 C198 184, 192 192, 182 192 C172 192, 163 184, 163 172Z" fill="white"/>
    <!-- Iris -->
    <path d="M169 174 C169 165, 174 158, 182 158 C190 158, 195 165, 195 174 C195 183, 190 188, 182 188 C174 188, 169 183, 169 174Z" fill="url(#pk-iris)"/>
    <!-- Pupil -->
    <path d="M176 176 C176 172, 178 168, 182 168 C186 168, 188 172, 188 176 C188 180, 186 183, 182 183 C178 183, 176 180, 176 176Z" fill="#064E3B"/>
    <!-- Main highlight -->
    <path d="M174 165 C174 162, 176 160, 179 160 C182 160, 184 162, 184 165 C184 168, 182 170, 179 170 C176 170, 174 168, 174 165Z" fill="white" opacity="0.9"/>
    <!-- Secondary highlight -->
    <circle cx="188" cy="180" r="2" fill="white" opacity="0.5"/>
    <!-- Eyelashes - upper -->
    <path d="M165 160 C163 155, 160 152, 157 150" stroke="#065F46" stroke-width="1.2" fill="none" stroke-linecap="round"/>
    <path d="M170 155 C169 150, 167 146, 164 143" stroke="#065F46" stroke-width="1.1" fill="none" stroke-linecap="round"/>
    <path d="M178 152 C178 147, 179 143, 179 139" stroke="#065F46" stroke-width="1" fill="none" stroke-linecap="round"/>
    <path d="M186 153 C188 148, 190 145, 193 143" stroke="#065F46" stroke-width="0.9" fill="none" stroke-linecap="round"/>
    <!-- Sparkle in eye -->
    <path d="M190 164 L191 161 L192 164 L195 163 L192 164 L193 167 L192 164 L189 165Z" fill="white" opacity="0.7"/>
  </g>

  <!-- Right eye -->
  <g>
    <!-- Eye white -->
    <path d="M202 172 C202 160, 211 152, 221 152 C231 152, 237 160, 237 172 C237 184, 231 192, 221 192 C211 192, 202 184, 202 172Z" fill="white"/>
    <!-- Iris -->
    <path d="M205 174 C205 165, 210 158, 218 158 C226 158, 231 165, 231 174 C231 183, 226 188, 218 188 C210 188, 205 183, 205 174Z" fill="url(#pk-iris)"/>
    <!-- Pupil -->
    <path d="M212 176 C212 172, 214 168, 218 168 C222 168, 224 172, 224 176 C224 180, 222 183, 218 183 C214 183, 212 180, 212 176Z" fill="#064E3B"/>
    <!-- Main highlight -->
    <path d="M210 165 C210 162, 212 160, 215 160 C218 160, 220 162, 220 165 C220 168, 218 170, 215 170 C212 170, 210 168, 210 165Z" fill="white" opacity="0.9"/>
    <!-- Secondary highlight -->
    <circle cx="224" cy="180" r="2" fill="white" opacity="0.5"/>
    <!-- Eyelashes - upper -->
    <path d="M235 160 C237 155, 240 152, 243 150" stroke="#065F46" stroke-width="1.2" fill="none" stroke-linecap="round"/>
    <path d="M230 155 C231 150, 233 146, 236 143" stroke="#065F46" stroke-width="1.1" fill="none" stroke-linecap="round"/>
    <path d="M222 152 C222 147, 221 143, 221 139" stroke="#065F46" stroke-width="1" fill="none" stroke-linecap="round"/>
    <path d="M214 153 C212 148, 210 145, 207 143" stroke="#065F46" stroke-width="0.9" fill="none" stroke-linecap="round"/>
    <!-- Sparkle in eye -->
    <path d="M226 164 L227 161 L228 164 L231 163 L228 164 L229 167 L228 164 L225 165Z" fill="white" opacity="0.7"/>
  </g>

  <!-- Blush -->
  <ellipse cx="160" cy="195" rx="14" ry="7" fill="url(#pk-blush)"/>
  <ellipse cx="240" cy="195" rx="14" ry="7" fill="url(#pk-blush)"/>

  <!-- Button nose -->
  <path d="M197 196 C198 193, 202 193, 203 196 C204 198, 201 200, 200 200 C199 200, 196 198, 197 196Z" fill="#10B981" opacity="0.35"/>

  <!-- Gentle smile -->
  <path d="M188 210 C192 216, 198 219, 200 219 C202 219, 208 216, 212 210" stroke="#065F46" stroke-width="1.5" fill="none" stroke-linecap="round" opacity="0.4"/>
  <!-- Smile dimples -->
  <path d="M186 208 C185 210, 186 212, 188 212" stroke="#065F46" stroke-width="0.8" fill="none" opacity="0.2"/>
  <path d="M214 208 C215 210, 214 212, 212 212" stroke="#065F46" stroke-width="0.8" fill="none" opacity="0.2"/>

  <!-- ======= BUTTERFLIES ======= -->
  <!-- Butterfly 1 - pink, upper left -->
  <g transform="translate(85, 130) rotate(-10)">
    <path d="M0 0 C-4 -10, -14 -14, -16 -8 C-18 -2, -10 4, -4 2 C-2 1, -1 0, 0 0Z" fill="#F9A8D4" opacity="0.7"/>
    <path d="M0 0 C4 -10, 14 -14, 16 -8 C18 -2, 10 4, 4 2 C2 1, 1 0, 0 0Z" fill="#FBCFE8" opacity="0.65"/>
    <path d="M0 0 C-3 4, -10 8, -12 5 C-14 2, -8 -1, -3 1Z" fill="#F9A8D4" opacity="0.5"/>
    <path d="M0 0 C3 4, 10 8, 12 5 C14 2, 8 -1, 3 1Z" fill="#FBCFE8" opacity="0.45"/>
    <path d="M0 -2 L0 4" stroke="#EC4899" stroke-width="0.8" opacity="0.5"/>
    <path d="M-1 -3 C-3 -7, -5 -9, -6 -8" stroke="#EC4899" stroke-width="0.5" fill="none" opacity="0.4"/>
    <path d="M1 -3 C3 -7, 5 -9, 6 -8" stroke="#EC4899" stroke-width="0.5" fill="none" opacity="0.4"/>
  </g>

  <!-- Butterfly 2 - purple, upper right -->
  <g transform="translate(318, 110) rotate(15)">
    <path d="M0 0 C-3 -8, -11 -11, -13 -6 C-15 -1, -8 3, -3 2 C-1.5 1, -0.5 0, 0 0Z" fill="#C4B5FD" opacity="0.6"/>
    <path d="M0 0 C3 -8, 11 -11, 13 -6 C15 -1, 8 3, 3 2 C1.5 1, 0.5 0, 0 0Z" fill="#DDD6FE" opacity="0.55"/>
    <path d="M0 0 C-2 3, -8 6, -10 4 C-11 2, -6 -0.5, -2 0.5Z" fill="#C4B5FD" opacity="0.4"/>
    <path d="M0 0 C2 3, 8 6, 10 4 C11 2, 6 -0.5, 2 0.5Z" fill="#DDD6FE" opacity="0.35"/>
    <path d="M0 -1.5 L0 3" stroke="#8B5CF6" stroke-width="0.6" opacity="0.4"/>
    <path d="M-1 -2 C-2 -5, -4 -7, -5 -6" stroke="#8B5CF6" stroke-width="0.4" fill="none" opacity="0.3"/>
    <path d="M1 -2 C2 -5, 4 -7, 5 -6" stroke="#8B5CF6" stroke-width="0.4" fill="none" opacity="0.3"/>
  </g>

  <!-- Butterfly 3 - green, right side -->
  <g transform="translate(340, 280) rotate(5)">
    <path d="M0 0 C-3 -7, -9 -9, -10 -5 C-11 -1, -6 2, -2 1Z" fill="#A7F3D0" opacity="0.5"/>
    <path d="M0 0 C3 -7, 9 -9, 10 -5 C11 -1, 6 2, 2 1Z" fill="#6EE7B7" opacity="0.45"/>
    <path d="M0 0 C-2 3, -6 5, -7 3 C-8 1, -4 -0.5, -1 0.5Z" fill="#A7F3D0" opacity="0.35"/>
    <path d="M0 0 C2 3, 6 5, 7 3 C8 1, 4 -0.5, 1 0.5Z" fill="#6EE7B7" opacity="0.3"/>
    <path d="M0 -1 L0 2.5" stroke="#059669" stroke-width="0.5" opacity="0.4"/>
  </g>

  <!-- ======= SPARKLE PARTICLES ======= -->
  <!-- Four-point sparkles -->
  <g filter="url(#pk-sparkle)">
    <path d="M130 80 L132 74 L134 80 L140 78 L134 80 L136 86 L134 80 L128 82Z" fill="#A7F3D0" opacity="0.6"/>
    <path d="M275 85 L276.5 80 L278 85 L283 83.5 L278 85 L279.5 90 L278 85 L273 86.5Z" fill="#6EE7B7" opacity="0.5"/>
    <path d="M48 195 L49.5 190 L51 195 L56 193 L51 195 L52.5 200 L51 195 L46 197Z" fill="#34D399" opacity="0.4"/>
    <path d="M358 165 L359 162 L360 165 L363 164 L360 165 L361 168 L360 165 L357 166Z" fill="#A7F3D0" opacity="0.38"/>
    <path d="M110 310 L111.5 306 L113 310 L117 308.5 L113 310 L114.5 314 L113 310 L109 311.5Z" fill="#6EE7B7" opacity="0.35"/>
    <path d="M290 320 L291 317 L292 320 L295 319 L292 320 L293 323 L292 320 L289 321Z" fill="#34D399" opacity="0.3"/>
  </g>
</svg>