<svg xmlns="http://www.w3.org/2000/svg" viewBox="0 0 400 400" fill="none">
  <defs>
    <!-- Orange monster gradient -->
    <radialGradient id="m-orange" cx="0.4" cy="0.35" r="0.65">
      <stop offset="0%" stop-color="#FDBA74"/>
      <stop offset="50%" stop-color="#F97316"/>
      <stop offset="100%" stop-color="#C2410C"/>
    </radialGradient>
    <!-- Orange monster shadow -->
    <radialGradient id="m-orange-shade" cx="0.6" cy="0.7" r="0.5">
      <stop offset="0%" stop-color="#9A3412" stop-opacity="0.2"/>
      <stop offset="100%" stop-color="#9A3412" stop-opacity="0"/>
    </radialGradient>
    <!-- Blue monster gradient -->
    <radialGradient id="m-blue" cx="0.4" cy="0.35" r="0.65">
      <stop offset="0%" stop-color="#67E8F9"/>
      <stop offset="45%" stop-color="#06B6D4"/>
      <stop offset="100%" stop-color="#0E7490"/>
    </radialGradient>
    <!-- Purple monster gradient -->
    <radialGradient id="m-purple" cx="0.4" cy="0.3" r="0.65">
      <stop offset="0%" stop-color="#C4B5FD"/>
      <stop offset="50%" stop-color="#8B5CF6"/>
      <stop offset="100%" stop-color="#6D28D9"/>
    </radialGradient>
    <!-- Yellow monster gradient -->
    <radialGradient id="m-yellow" cx="0.4" cy="0.35" r="0.6">
      <stop offset="0%" stop-color="#FDE68A"/>
      <stop offset="50%" stop-color="#FBBF24"/>
      <stop offset="100%" stop-color="#D97706"/>
    </radialGradient>
    <!-- Background glow -->
    <radialGradient id="m-glow" cx="0.5" cy="0.48" r="0.55">
      <stop offset="0%" stop-color="#FED7AA" stop-opacity="0.2"/>
      <stop offset="60%" stop-color="#FDBA74" stop-opacity="0.08"/>
      <stop offset="100%" stop-color="#F97316" stop-opacity="0"/>
    </radialGradient>
    <!-- Warm overlay -->
    <radialGradient id="m-warm" cx="0.5" cy="0.5" r="0.7">
      <stop offset="0%" stop-color="#FFF7ED" stop-opacity="0.08"/>
      <stop offset="100%" stop-color="#FFF7ED" stop-opacity="0"/>
    </radialGradient>
    <!-- Ribbon gradient -->
    <linearGradient id="m-ribbon" x1="0" y1="0" x2="1" y2="0">
      <stop offset="0%" stop-color="#FDE68A"/>
      <stop offset="30%" stop-color="#FDBA74"/>
      <stop offset="70%" stop-color="#FB923C"/>
      <stop offset="100%" stop-color="#FDE68A"/>
    </linearGradient>
    <!-- Shadow filter -->
    <filter id="m-shadow" x="-15%" y="-15%" width="130%" height="140%">
      <feGaussianBlur in="SourceAlpha" stdDeviation="5" result="blur"/>
      <feOffset dx="0" dy="5" result="shifted"/>
      <feFlood flood-color="#9A3412" flood-opacity="0.1"/>
      <feComposite in2="shifted" operator="in"/>
      <feMerge>
        <feMergeNode/>
        <feMergeNode in="SourceGraphic"/>
      </feMerge>
    </filter>
    <!-- Sparkle glow -->
    <filter id="m-sparkle" x="-50%" y="-50%" width="200%" height="200%">
      <feGaussianBlur stdDeviation="1.5" result="glow"/>
      <feMerge>
        <feMergeNode in="glow"/>
        <feMergeNode in="SourceGraphic"/>
      </feMerge>
    </filter>
    <!-- Blush -->
    <radialGradient id="m-blush" cx="0.5" cy="0.5" r="0.5">
      <stop offset="0%" stop-color="#FF6B6B" stop-opacity="0.3"/>
      <stop offset="100%" stop-color="#FF6B6B" stop-opacity="0"/>
    </radialGradient>
    <!-- Confetti colors -->
    <linearGradient id="m-confetti1" x1="0" y1="0" x2="1" y2="1">
      <stop offset="0%" stop-color="#FB923C"/>
      <stop offset="100%" stop-color="#F97316"/>
    </linearGradient>
  </defs>

  <!-- Background warm glow -->
  <path d="M200 10 C320 10, 395 90, 395 200 C395 310, 320 390, 200 390 C80 390, 5 310, 5 200 C5 90, 80 10, 200 10 Z" fill="url(#m-glow)"/>
  <path d="M200 30 C300 30, 370 100, 370 200 C370 300, 300 370, 200 370 C100 370, 30 300, 30 200 C30 100, 100 30, 200 30 Z" fill="url(#m-warm)"/>

  <!-- Confetti scattered around -->
  <g opacity="0.5">
    <path d="M55 65 C57 60, 62 62, 60 67 C58 72, 53 70, 55 65 Z" fill="#F97316"/>
    <path d="M82 45 L86 42 L88 48 L84 50 Z" fill="#FBBF24" opacity="0.6"/>
    <path d="M345 72 C347 68, 352 70, 350 74 C348 78, 343 76, 345 72 Z" fill="#FB923C"/>
    <path d="M320 50 L324 48 L325 54 L321 55 Z" fill="#8B5CF6" opacity="0.5"/>
    <path d="M40 310 C42 306, 47 308, 45 312 Z" fill="#06B6D4" opacity="0.4"/>
    <path d="M365 290 C367 286, 372 288, 370 292 Z" fill="#F97316" opacity="0.4"/>
    <path d="M150 30 L153 26 L155 32 Z" fill="#FDBA74" opacity="0.5"/>
    <path d="M260 38 L263 34 L265 40 Z" fill="#FB923C" opacity="0.45"/>
    <path d="M375 200 L378 196 L380 202 Z" fill="#FBBF24" opacity="0.35"/>
    <path d="M25 170 L28 166 L30 172 Z" fill="#F97316" opacity="0.35"/>
  </g>

  <!-- Playful pennant banner -->
  <path d="M42 215 C65 198, 100 225, 140 208 C170 196, 195 194, 220 200 C250 208, 280 230, 310 215 C332 205, 350 210, 365 218" stroke="url(#m-ribbon)" stroke-width="3" fill="none" stroke-linecap="round" opacity="0.7"/>
  <!-- Pennant flags -->
  <path d="M78 208 C80 212, 82 220, 84 226 C86 220, 88 212, 90 208 Z" fill="#F97316" opacity="0.55"/>
  <path d="M118 214 C120 218, 122 226, 124 232 C126 226, 128 218, 130 214 Z" fill="#FBBF24" opacity="0.5"/>
  <path d="M255 210 C257 214, 259 222, 261 228 C263 222, 265 214, 267 210 Z" fill="#8B5CF6" opacity="0.45"/>
  <path d="M298 218 C300 222, 302 230, 304 236 C306 230, 308 222, 310 218 Z" fill="#06B6D4" opacity="0.45"/>

  <!-- Ground shadow -->
  <path d="M60 365 C100 375, 300 375, 340 365 C360 360, 360 372, 200 378 C40 372, 40 360, 60 365 Z" fill="#9A3412" opacity="0.05"/>

  <!-- ===== MONSTER 2 (left) - Blue/Teal, two uneven eyes, antenna ===== -->
  <g filter="url(#m-shadow)">
    <!-- Body -->
    <path d="M68 230 C60 210, 58 180, 65 160 C70 145, 82 135, 95 132 C108 135, 120 145, 125 160 C132 180, 130 210, 122 230 C125 250, 128 270, 125 290 C122 305, 118 315, 112 320 L78 320 C72 315, 68 305, 65 290 C62 270, 65 250, 68 230 Z" fill="url(#m-blue)"/>
    <!-- Body highlight -->
    <path d="M78 170 C82 155, 90 145, 98 142 C92 148, 86 160, 82 175 C78 190, 76 205, 76 215 C76 205, 76 185, 78 170 Z" fill="white" opacity="0.15"/>
    <!-- Belly patch -->
    <path d="M80 220 C82 205, 90 195, 95 195 C100 195, 108 205, 110 220 C108 238, 100 248, 95 248 C90 248, 82 238, 80 220 Z" fill="#A5F3FC" opacity="0.2"/>

    <!-- Eye - large left -->
    <path d="M75 185 C75 172, 82 163, 92 163 C102 163, 109 172, 109 185 C109 198, 102 207, 92 207 C82 207, 75 198, 75 185 Z" fill="white"/>
    <path d="M80 187 C80 177, 85 170, 92 170 C99 170, 104 177, 104 187 C104 197, 99 204, 92 204 C85 204, 80 197, 80 187 Z" fill="#1E293B"/>
    <path d="M86 178 C88 175, 92 174, 94 176 C92 175, 88 176, 86 178 Z" fill="white" opacity="0.8"/>
    <path d="M96 183 C97 182, 99 183, 98 184 Z" fill="white" opacity="0.5"/>

    <!-- Eye - small right -->
    <path d="M108 178 C108 172, 112 168, 117 168 C122 168, 126 172, 126 178 C126 184, 122 188, 117 188 C112 188, 108 184, 108 178 Z" fill="white"/>
    <path d="M111 179 C111 174, 113 171, 117 171 C121 171, 123 174, 123 179 C123 184, 121 187, 117 187 C113 187, 111 184, 111 179 Z" fill="#1E293B"/>
    <path d="M114 174 C115 173, 117 173, 118 174 Z" fill="white" opacity="0.7"/>

    <!-- Antenna -->
    <path d="M95 132 C95 122, 92 108, 88 98 C86 92, 85 86, 86 82" stroke="#0E7490" stroke-width="2.5" fill="none" stroke-linecap="round"/>
    <path d="M80 78 C82 72, 88 68, 92 70 C96 72, 96 80, 92 84 C88 88, 80 86, 80 78 Z" fill="#22D3EE"/>
    <path d="M84 74 C86 72, 90 72, 90 74 Z" fill="white" opacity="0.5"/>

    <!-- Mouth - wavy smile -->
    <path d="M78 242 C84 250, 92 254, 100 252 C106 250, 110 246, 114 242" stroke="#0E7490" stroke-width="2" fill="none" stroke-linecap="round"/>

    <!-- Arms -->
    <path d="M62 235 C52 230, 42 225, 36 222 C32 220, 30 222, 32 226 C34 230, 42 236, 52 240 Z" fill="#06B6D4"/>
    <path d="M128 235 C138 230, 148 225, 154 222 C158 220, 160 222, 158 226 C156 230, 148 236, 138 240 Z" fill="#06B6D4"/>

    <!-- Feet -->
    <path d="M72 316 C68 318, 62 320, 60 324 C58 330, 64 334, 76 334 C86 334, 88 330, 86 326 C84 322, 80 318, 78 316 Z" fill="#0E7490"/>
    <path d="M108 316 C104 318, 100 320, 98 324 C96 330, 102 334, 114 334 C124 334, 128 330, 126 326 C124 322, 116 318, 112 316 Z" fill="#0E7490"/>
  </g>

  <!-- ===== MONSTER 1 (center) - Orange main character, cyclops ===== -->
  <g filter="url(#m-shadow)">
    <!-- Body - large round -->
    <path d="M148 250 C140 218, 142 180, 152 155 C160 138, 175 125, 195 120 C215 125, 230 138, 238 155 C248 180, 250 218, 242 250 C248 275, 250 300, 245 325 C240 340, 230 352, 218 358 L172 358 C160 352, 150 340, 145 325 C140 300, 142 275, 148 250 Z" fill="url(#m-orange)"/>
    <!-- Body shading overlay -->
    <path d="M148 250 C140 218, 142 180, 152 155 C160 138, 175 125, 195 120 C215 125, 230 138, 238 155 C248 180, 250 218, 242 250 C248 275, 250 300, 245 325 C240 340, 230 352, 218 358 L172 358 C160 352, 150 340, 145 325 C140 300, 142 275, 148 250 Z" fill="url(#m-orange-shade)"/>
    <!-- Body highlight -->
    <path d="M168 160 C175 142, 188 130, 200 128 C190 135, 178 148, 172 168 C166 188, 162 212, 160 230 C160 210, 162 180, 168 160 Z" fill="white" opacity="0.12"/>
    <!-- Belly -->
    <path d="M165 255 C168 228, 180 210, 195 208 C210 210, 222 228, 225 255 C222 280, 210 295, 195 298 C180 295, 168 280, 165 255 Z" fill="#FED7AA" opacity="0.18"/>

    <!-- Horns -->
    <path d="M168 135 C165 125, 158 108, 152 95 C150 90, 148 84, 150 80 C153 78, 157 82, 160 90 C165 102, 170 118, 174 130 Z" fill="#EA580C"/>
    <path d="M154 88 C155 84, 158 84, 158 88 Z" fill="#FDBA74" opacity="0.4"/>
    <path d="M222 135 C225 125, 232 108, 238 95 C240 90, 242 84, 240 80 C237 78, 233 82, 230 90 C225 102, 220 118, 216 130 Z" fill="#EA580C"/>
    <path d="M238 88 C237 84, 234 84, 234 88 Z" fill="#FDBA74" opacity="0.4"/>

    <!-- Giant cyclops eye -->
    <path d="M163 195 C163 170, 175 152, 195 152 C215 152, 227 170, 227 195 C227 220, 215 238, 195 238 C175 238, 163 220, 163 195 Z" fill="white"/>
    <!-- Iris -->
    <path d="M172 198 C172 180, 181 166, 195 166 C209 166, 218 180, 218 198 C218 216, 209 230, 195 230 C181 230, 172 216, 172 198 Z" fill="#1a1a2e"/>
    <!-- Iris detail ring -->
    <path d="M178 198 C178 184, 185 173, 195 173 C205 173, 212 184, 212 198 C212 212, 205 223, 195 223 C185 223, 178 212, 178 198 Z" fill="#2d2d4e" opacity="0.6"/>
    <!-- Eye shine - large -->
    <path d="M180 182 C184 174, 192 170, 198 174 C194 172, 186 175, 182 184 C180 188, 179 192, 180 195 C179 192, 178 186, 180 182 Z" fill="white" opacity="0.8"/>
    <!-- Eye shine - small -->
    <path d="M205 185 C207 183, 210 184, 209 187 C208 190, 204 188, 205 185 Z" fill="white" opacity="0.6"/>

    <!-- Big cheerful mouth -->
    <path d="M168 268 C175 282, 188 290, 195 292 C202 290, 215 282, 222 268 C215 272, 205 276, 195 278 C185 276, 175 272, 168 268 Z" fill="#9A3412"/>
    <!-- Mouth interior -->
    <path d="M175 272 C182 282, 190 286, 195 288 C200 286, 208 282, 215 272 C208 275, 202 278, 195 280 C188 278, 182 275, 175 272 Z" fill="#7C2D12" opacity="0.5"/>
    <!-- Tongue hint -->
    <path d="M188 282 C190 286, 195 288, 200 286 C202 284, 200 280, 195 280 C190 280, 188 282, 188 282 Z" fill="#EF4444" opacity="0.3"/>

    <!-- Blush -->
    <path d="M150 245 C154 238, 165 236, 170 240 C174 244, 170 252, 162 254 C154 256, 148 250, 150 245 Z" fill="url(#m-blush)"/>
    <path d="M218 245 C222 238, 233 236, 238 240 C242 244, 238 252, 230 254 C222 256, 216 250, 218 245 Z" fill="url(#m-blush)"/>

    <!-- Arms waving -->
    <path d="M145 240 C132 232, 118 218, 108 208 C104 204, 100 200, 98 202 C96 206, 100 212, 106 218 C114 228, 126 240, 138 248 Z" fill="#EA580C"/>
    <path d="M100 200 C96 196, 98 192, 102 194 C106 198, 104 204, 100 200 Z" fill="#F97316"/>
    <path d="M245 240 C258 232, 272 218, 282 208 C286 204, 290 200, 292 202 C294 206, 290 212, 284 218 C276 228, 264 240, 252 248 Z" fill="#EA580C"/>
    <path d="M290 200 C294 196, 296 192, 292 194 C288 198, 286 204, 290 200 Z" fill="#F97316"/>

    <!-- Feet -->
    <path d="M162 352 C156 356, 148 358, 146 364 C144 370, 150 376, 168 376 C182 376, 186 372, 184 366 C182 362, 174 356, 170 352 Z" fill="#C2410C"/>
    <path d="M218 352 C212 356, 208 358, 206 364 C204 370, 210 376, 228 376 C242 376, 248 372, 246 366 C244 362, 230 356, 224 352 Z" fill="#C2410C"/>
  </g>

  <!-- ===== MONSTER 3 (right) - Purple blob, three eyes ===== -->
  <g filter="url(#m-shadow)">
    <!-- Body - blobby shape -->
    <path d="M300 265 C292 240, 290 215, 295 198 C300 182, 310 172, 322 168 C334 172, 344 182, 349 198 C354 215, 352 240, 344 265 C348 280, 350 296, 346 310 C342 320, 336 328, 328 332 L316 332 C308 328, 302 320, 298 310 C294 296, 296 280, 300 265 Z" fill="url(#m-purple)"/>
    <!-- Body highlight -->
    <path d="M308 205 C312 190, 318 180, 326 176 C320 182, 314 195, 310 210 C306 225, 304 242, 304 255 C304 240, 304 220, 308 205 Z" fill="white" opacity="0.12"/>
    <!-- Belly -->
    <path d="M308 250 C310 235, 316 225, 322 224 C328 225, 334 235, 336 250 C334 265, 328 272, 322 274 C316 272, 310 265, 308 250 Z" fill="#DDD6FE" opacity="0.18"/>

    <!-- Three stacked eyes -->
    <!-- Top eye -->
    <path d="M312 192 C312 186, 316 182, 322 182 C328 182, 332 186, 332 192 C332 198, 328 202, 322 202 C316 202, 312 198, 312 192 Z" fill="white"/>
    <path d="M316 193 C316 189, 318 186, 322 186 C326 186, 328 189, 328 193 C328 197, 326 200, 322 200 C318 200, 316 197, 316 193 Z" fill="#1E1B4B"/>
    <path d="M319 188 C320 187, 322 187, 322 188 Z" fill="white" opacity="0.7"/>
    <!-- Middle eye -->
    <path d="M308 212 C308 204, 314 198, 322 198 C330 198, 336 204, 336 212 C336 220, 330 226, 322 226 C314 226, 308 220, 308 212 Z" fill="white"/>
    <path d="M312 213 C312 207, 316 203, 322 203 C328 203, 332 207, 332 213 C332 219, 328 223, 322 223 C316 223, 312 219, 312 213 Z" fill="#1E1B4B"/>
    <path d="M317 207 C319 205, 323 205, 324 207 Z" fill="white" opacity="0.7"/>
    <path d="M327 210 C328 209, 329 210, 328 211 Z" fill="white" opacity="0.5"/>
    <!-- Bottom eye -->
    <path d="M314 232 C314 227, 317 224, 322 224 C327 224, 330 227, 330 232 C330 237, 327 240, 322 240 C317 240, 314 237, 314 232 Z" fill="white"/>
    <path d="M317 233 C317 229, 319 227, 322 227 C325 227, 327 229, 327 233 C327 237, 325 239, 322 239 C319 239, 317 237, 317 233 Z" fill="#1E1B4B"/>
    <path d="M319 229 C320 228, 322 228, 322 229 Z" fill="white" opacity="0.6"/>

    <!-- Tiny mouth -->
    <path d="M316 258 C318 262, 322 264, 326 262 C328 260, 328 256, 326 254" stroke="#6D28D9" stroke-width="1.5" fill="none" stroke-linecap="round"/>

    <!-- Tiny legs -->
    <path d="M310 328 C308 332, 304 336, 302 340 C300 344, 304 348, 310 346 C314 344, 314 340, 314 336 Z" fill="#6D28D9"/>
    <path d="M334 328 C336 332, 340 336, 342 340 C344 344, 340 348, 334 346 C330 344, 330 340, 330 336 Z" fill="#6D28D9"/>

    <!-- Small arms -->
    <path d="M296 252 C290 248, 284 244, 280 242 C276 240, 274 242, 276 246 C278 250, 284 254, 290 256 Z" fill="#7C3AED"/>
    <path d="M348 252 C354 248, 360 244, 364 242 C368 240, 370 242, 368 246 C366 250, 360 254, 354 256 Z" fill="#7C3AED"/>
  </g>

  <!-- ===== MONSTER 4 (tiny, peeking from behind center) ===== -->
  <g filter="url(#m-shadow)">
    <!-- Just top of head and eyes visible -->
    <path d="M240 165 C240 148, 250 135, 264 132 C278 135, 288 148, 288 165 C288 172, 285 178, 280 182 L248 182 C243 178, 240 172, 240 165 Z" fill="url(#m-yellow)"/>
    <!-- Head highlight -->
    <path d="M252 145 C256 138, 262 135, 268 134 C262 138, 256 145, 254 152 C252 158, 250 165, 250 170 C249 162, 250 152, 252 145 Z" fill="white" opacity="0.15"/>
    <!-- Left eye -->
    <path d="M250 158 C250 152, 254 148, 259 148 C264 148, 268 152, 268 158 C268 164, 264 168, 259 168 C254 168, 250 164, 250 158 Z" fill="white"/>
    <path d="M253 159 C253 155, 255 152, 259 152 C263 152, 265 155, 265 159 C265 163, 263 166, 259 166 C255 166, 253 163, 253 159 Z" fill="#1a1a2e"/>
    <path d="M256 154 C257 153, 259 153, 259 154 Z" fill="white" opacity="0.7"/>
    <!-- Right eye -->
    <path d="M270 158 C270 152, 274 148, 279 148 C284 148, 288 152, 288 158 C288 164, 284 168, 279 168 C274 168, 270 164, 270 158 Z" fill="white"/>
    <path d="M273 159 C273 155, 275 152, 279 152 C283 152, 285 155, 285 159 C285 163, 283 166, 279 166 C275 166, 273 163, 273 159 Z" fill="#1a1a2e"/>
    <path d="M276 154 C277 153, 279 153, 279 154 Z" fill="white" opacity="0.7"/>
    <!-- Tiny ears/bumps -->
    <path d="M244 148 C240 142, 238 134, 242 130 C246 128, 250 132, 250 138 C250 142, 248 146, 244 148 Z" fill="#FBBF24"/>
    <path d="M284 148 C288 142, 290 134, 286 130 C282 128, 278 132, 278 138 C278 142, 280 146, 284 148 Z" fill="#FBBF24"/>
  </g>

  <!-- Hearts floating between monsters -->
  <g filter="url(#m-sparkle)">
    <path d="M175 108 C175 102, 180 97, 184 100 C188 97, 193 102, 193 108 C193 116, 184 123, 184 123 C184 123, 175 116, 175 108 Z" fill="#F97316" opacity="0.4"/>
  </g>
  <g filter="url(#m-sparkle)">
    <path d="M52 165 C52 161, 56 157, 59 159 C62 157, 66 161, 66 165 C66 170, 59 175, 59 175 C59 175, 52 170, 52 165 Z" fill="#06B6D4" opacity="0.35"/>
  </g>
  <g filter="url(#m-sparkle)">
    <path d="M348 140 C348 137, 351 134, 353 136 C355 134, 358 137, 358 140 C358 144, 353 147, 353 147 C353 147, 348 144, 348 140 Z" fill="#8B5CF6" opacity="0.3"/>
  </g>

  <!-- Stars -->
  <g filter="url(#m-sparkle)" opacity="0.45">
    <path d="M30 130 L33 122 C34 120, 36 122, 38 120 L42 128 C40 128, 38 130, 40 134 L34 132 C32 134, 30 136, 28 134 Z" fill="#FDBA74"/>
  </g>
  <g filter="url(#m-sparkle)" opacity="0.4">
    <path d="M375 172 L377 166 C378 164, 380 166, 382 165 L385 170 C383 170, 382 172, 383 175 L378 174 C377 175, 375 176, 374 175 Z" fill="#FDBA74"/>
  </g>
  <g filter="url(#m-sparkle)" opacity="0.35">
    <path d="M195 50 L197 44 C198 42, 200 44, 202 43 L205 48 C203 48, 202 50, 203 53 L198 52 C197 53, 195 54, 194 53 Z" fill="#FDE68A"/>
  </g>
</svg>
